<svg width="80" height="52" viewBox="0 0 80 52" fill="none" xmlns="http://www.w3.org/2000/svg">
<g clip-path="url(#clip0_1997_6319)">
<path d="M78.1721 26.0504L65.5382 13.0711C51.433 -1.41791 28.5668 -1.41791 14.4616 13.0711L1.82764 26.0504L14.2972 38.8605C28.4925 53.442 51.5046 53.442 65.6999 38.8605L78.1695 26.0504H78.1721Z" fill="#B266FF"/>
<path d="M65.0127 12.1031C48.7179 -1.08774 31.2807 -1.08774 14.9859 12.1031C12.6849 16.2171 11.3701 20.9551 11.3701 25.9998C11.3701 31.0445 12.6849 35.7825 14.9859 39.8966C31.2807 53.0874 48.7179 53.0874 65.0127 39.8966C67.3137 35.7825 68.6285 31.0445 68.6285 25.9998C68.6285 20.9551 67.3137 16.2171 65.0127 12.1031Z" fill="white"/>
<path d="M39.996 43.7147C49.805 43.7147 57.7567 35.7836 57.7567 26.0001C57.7567 16.2165 49.805 8.2854 39.996 8.2854C30.1871 8.2854 22.2354 16.2165 22.2354 26.0001C22.2354 35.7836 30.1871 43.7147 39.996 43.7147Z" fill="#33A9FF"/>
<path d="M39.9958 9.60736C49.059 9.60736 56.4311 16.9603 56.4311 26C56.4311 35.0398 49.059 42.3927 39.9958 42.3927C30.9325 42.3927 23.5605 35.0398 23.5605 26C23.5605 16.9603 30.9325 9.60736 39.9958 9.60736ZM39.9958 6.96338C29.456 6.96338 20.9097 15.4876 20.9097 26C20.9097 36.5125 29.456 45.0367 39.9958 45.0367C50.5356 45.0367 59.0819 36.5125 59.0819 26C59.0819 15.4876 50.5382 6.96338 39.9958 6.96338Z" fill="#007ECC"/>
<path d="M61.4693 40.2774V11.7224L38.5659 25.9999L61.4693 40.2774Z" fill="white"/>
<path d="M39.9971 33.1388C43.95 33.1388 47.1544 29.9427 47.1544 26.0001C47.1544 22.0575 43.95 18.8613 39.9971 18.8613C36.0443 18.8613 32.8398 22.0575 32.8398 26.0001C32.8398 29.9427 36.0443 33.1388 39.9971 33.1388Z" fill="#060A1A"/>
<path d="M44.7686 23.6205C46.0862 23.6205 47.1543 22.5551 47.1543 21.2409C47.1543 19.9267 46.0862 18.8613 44.7686 18.8613C43.451 18.8613 42.3828 19.9267 42.3828 21.2409C42.3828 22.5551 43.451 23.6205 44.7686 23.6205Z" fill="white"/>
<path d="M78.1721 26.0002C54.1422 -5.72759 25.8576 -5.72759 1.82764 26.0002C25.8576 57.7279 54.1422 57.7279 78.1721 26.0002Z" stroke="#B266FF" stroke-width="2.91593" stroke-miterlimit="10"/>
</g>
<defs>
<clipPath id="clip0_1997_6319">
<rect width="80" height="50.5" fill="white" transform="translate(0 0.75)"/>
</clipPath>
</defs>
</svg>
