<?xml version="1.0" encoding="UTF-8"?>
<svg id="Layer_1" xmlns="http://www.w3.org/2000/svg" version="1.1" viewBox="0 0 40 40">
  <!-- Generator: Adobe Illustrator 29.2.1, SVG Export Plug-In . SVG Version: 2.1.0 Build 116)  -->
  <defs>
    <style>
      .st0 {
        fill: none;
        stroke: #fff;
        stroke-linecap: round;
        stroke-linejoin: round;
        stroke-width: 3px;
      }
    </style>
  </defs>
  <path class="st0" d="M12.5,5h15c4.1,0,7.5,3.4,7.5,7.5v15c0,4.1-3.4,7.5-7.5,7.5h-15c-4.1,0-7.5-3.4-7.5-7.5v-15c0-4.1,3.4-7.5,7.5-7.5h0Z"/>
  <path class="st0" d="M13.5,18.5v9"/>
  <path class="st0" d="M19.5,27.5v-5.2c0-2.1,1.7-3.8,3.8-3.8h0c2.1,0,3.8,1.7,3.8,3.8v5.2"/>
  <path class="st0" d="M13.5,13.1c-.2,0-.4.2-.4.4,0,.2.2.4.4.4s.4-.2.4-.4-.2-.4-.4-.4"/>
</svg>