<?xml version="1.0" encoding="UTF-8"?>
<svg id="Layer_1" xmlns="http://www.w3.org/2000/svg" version="1.1" viewBox="0 0 40 40">
  <!-- Generator: Adobe Illustrator 29.2.1, SVG Export Plug-In . SVG Version: 2.1.0 Build 116)  -->
  <defs>
    <style>
      .st0 {
        fill: none;
        stroke: #fff;
        stroke-linecap: round;
        stroke-linejoin: round;
        stroke-width: 3px;
      }
    </style>
  </defs>
  <path class="st0" d="M18.3,18.3c.8,1.4,2,2.5,3.4,3.4l1.3-.8c.6-.3,1.3-.3,1.8.1l2.5,2c.4.3.6.7.6,1.2,0,.5-.1.9-.5,1.2l-1.1,1.1c-1.6,1.5-4,1.8-5.8.6-3-2-5.6-4.5-7.6-7.6-1.2-1.9-.9-4.3.6-5.8l1.1-1.1c.3-.3.8-.5,1.2-.5.5,0,.9.2,1.2.6l2,2.5c.4.5.5,1.2.1,1.8l-.8,1.3Z"/>
  <path class="st0" d="M11.9,32.6l-4.3.7c-.3,0-.5,0-.7-.2-.2-.2-.3-.5-.2-.7l.7-4.3c-4.1-6.4-2.8-15,3.2-19.8,6-4.8,14.6-4.3,20,1.1,5.4,5.4,5.9,14.1,1.1,20-4.8,6-13.3,7.3-19.8,3.2Z"/>
</svg>