<svg width="80" height="81" viewBox="0 0 80 81" fill="none" xmlns="http://www.w3.org/2000/svg">
<g clip-path="url(#clip0_2186_6771)">
<path d="M59.7583 0.0823975H20.2418C9.0626 0.0823975 0 9.1449 0 20.324V59.8406C0 71.0196 9.0626 80.0824 20.2418 80.0824H59.7583C70.9378 80.0824 80 71.0196 80 59.8406V20.324C80 9.1449 70.9378 0.0823975 59.7583 0.0823975Z" fill="#00DDB3"/>
<path d="M60.7501 18.1108C46.9908 18.1108 41.892 27.8611 37.7923 35.694L35.114 40.7053C30.7727 49.0121 27.5292 54.0615 19.1705 54.0615C18.6515 54.0615 18.1377 54.1629 17.6583 54.36C17.1788 54.5572 16.7431 54.846 16.3762 55.2102C16.0092 55.5744 15.718 56.0067 15.5194 56.4826C15.3209 56.9584 15.2188 57.4684 15.2188 57.9834C15.2202 59.0231 15.6371 60.0198 16.3778 60.7549C17.1186 61.49 18.1229 61.9038 19.1705 61.905C32.9352 61.905 38.0338 52.155 42.1336 44.3221L44.8065 39.3108C49.1532 31.004 52.3968 25.9546 60.7501 25.9546C61.2695 25.9554 61.784 25.8544 62.264 25.6576C62.744 25.4609 63.1804 25.1721 63.5477 24.8079C63.9155 24.4436 64.2071 24.011 64.4058 23.5348C64.6046 23.0586 64.7071 22.5482 64.7071 22.0327C64.7058 20.992 64.2883 19.9945 63.5464 19.2592C62.804 18.5238 61.7986 18.1108 60.7501 18.1108Z" fill="white"/>
</g>
<defs>
<clipPath id="clip0_2186_6771">
<rect width="80" height="80" fill="white" transform="translate(0 0.0823975)"/>
</clipPath>
</defs>
</svg>
