<svg width="81" height="76" viewBox="0 0 81 76" fill="none" xmlns="http://www.w3.org/2000/svg">
<g clip-path="url(#clip0_2186_6783)">
<path d="M48.7038 41.8034L43.1224 0.873169H42.7056C22.4103 0.93242 5.97234 17.3703 5.91309 37.6657V38.0825L48.7038 41.8034Z" fill="#ED6C47"/>
<path d="M43.5388 0.873169H43.1221V38.0825L61.7267 45.5243L80.3314 38.0825V37.6657C80.2721 17.3703 63.8342 0.93242 43.5388 0.873169Z" fill="#FF8F6B"/>
<path d="M80.3317 38.0825V38.4918C80.2734 58.7917 63.8316 75.2336 43.5317 75.2918H42.7131C22.4132 75.2336 5.97134 58.7917 5.91309 38.4918V38.0825H80.3317Z" fill="#D35230"/>
<path opacity="0.1" d="M44.9829 19.1615V58.8638C44.9736 60.2434 44.1376 61.4827 42.862 62.008C42.4558 62.1798 42.0193 62.2684 41.5782 62.2685H14.6945C14.1736 61.6731 13.6713 61.0406 13.2062 60.408C8.46624 54.085 5.90696 46.3941 5.91313 38.4917V37.6731C5.90225 30.5453 7.98539 23.5714 11.9038 17.6173C12.3131 16.9847 12.741 16.3522 13.2062 15.7568H41.5782C43.4527 15.771 44.9687 17.2871 44.9829 19.1615Z" fill="#0D0D0D"/>
<path opacity="0.2" d="M43.1225 21.022V60.7243C43.1224 61.1653 43.0338 61.6019 42.862 62.008C42.3367 63.2837 41.0974 64.1197 39.7178 64.1289H16.3876C15.7989 63.5313 15.2341 62.9107 14.6945 62.2685C14.1736 61.6731 13.6713 61.0406 13.2062 60.408C8.46624 54.085 5.90696 46.3941 5.91313 38.4917V37.6731C5.90225 30.5454 7.98539 23.5714 11.9038 17.6173H39.7178C41.5923 17.6315 43.1083 19.1475 43.1225 21.022Z" fill="#0D0D0D"/>
<path opacity="0.2" d="M43.1224 21.0221V57.0035C43.1083 58.8779 41.5922 60.3939 39.7178 60.4081H13.2062C8.46624 54.0851 5.90696 46.3942 5.91313 38.4918V37.6732C5.90225 30.5455 7.98539 23.5715 11.9038 17.6174H39.7178C41.5922 17.6316 43.1083 19.1476 43.1224 21.0221Z" fill="#0D0D0D"/>
<path opacity="0.2" d="M41.262 21.0221V57.0035C41.2478 58.8779 39.7318 60.3939 37.8573 60.4081H13.2062C8.46624 54.0851 5.90696 46.3942 5.91313 38.4918V37.6732C5.90225 30.5455 7.98539 23.5715 11.9038 17.6174H37.8573C39.7318 17.6316 41.2478 19.1476 41.262 21.0221Z" fill="#0D0D0D"/>
<path d="M3.74176 17.6173H37.8515C39.7349 17.6173 41.2617 19.1441 41.2617 21.0275V55.1373C41.2617 57.0207 39.7349 58.5475 37.8515 58.5475H3.74176C1.85837 58.5475 0.331543 57.0207 0.331543 55.1373V21.0275C0.331543 19.1441 1.85837 17.6173 3.74176 17.6173Z" fill="url(#paint0_linear_2186_6783)"/>
<path d="M21.1686 26.7132C23.3891 26.5633 25.5904 27.2083 27.3789 28.5327C28.8706 29.8645 29.6677 31.8078 29.5407 33.8034C29.5651 35.1907 29.1954 36.5564 28.4747 37.742C27.745 38.9072 26.6937 39.8364 25.4477 40.4174C24.0232 41.0799 22.4658 41.407 20.8951 41.3736H16.5807V49.3922H12.1621V26.7132H21.1686ZM16.577 37.9095H20.3798C21.5854 37.998 22.7816 37.6412 23.7417 36.9067C24.5358 36.1449 24.952 35.0707 24.8784 33.9727C24.8784 31.4735 23.426 30.2239 20.5212 30.2239H16.5771V37.9095H16.577Z" fill="white"/>
</g>
<defs>
<linearGradient id="paint0_linear_2186_6783" x1="7.44195" y1="14.9526" x2="34.1514" y2="61.2122" gradientUnits="userSpaceOnUse">
<stop stop-color="#CA4C28"/>
<stop offset="0.5" stop-color="#C5401E"/>
<stop offset="1" stop-color="#B62F14"/>
</linearGradient>
<clipPath id="clip0_2186_6783">
<rect width="80" height="74.4186" fill="white" transform="translate(0.331543 0.873169)"/>
</clipPath>
</defs>
</svg>
