<svg width="81" height="81" viewBox="0 0 81 81" fill="none" xmlns="http://www.w3.org/2000/svg">
<path d="M80.9253 40.0627C80.921 31.344 78.0681 22.8654 72.8009 15.9175C67.5337 8.96956 60.1406 3.93289 51.747 1.57409C43.3534 -0.78471 34.4189 -0.336452 26.3036 2.85064C18.1882 6.03772 11.3364 11.7891 6.79106 19.2293C2.24574 26.6695 0.255835 35.3911 1.12425 44.0665C1.99266 52.7419 5.67183 60.896 11.6017 67.2876C17.5316 73.6793 25.3875 77.9584 33.9736 79.4736C42.5597 80.9889 51.4057 79.6573 59.1652 75.6816C61.3155 77.0053 63.7784 77.7351 66.3027 77.7965C68.827 77.8579 71.3225 77.2486 73.5345 76.031C75.7466 74.8133 77.5961 73.0307 78.8945 70.865C80.1928 68.6993 80.8936 66.228 80.9253 63.7031C80.9289 60.5981 79.895 57.5809 77.9876 55.1308C79.9333 50.3457 80.931 45.2283 80.9253 40.0627ZM40.9063 73.2568C23.2362 73.2568 8.9152 58.3976 8.9152 40.0627C8.9152 21.7278 23.2362 6.84338 40.9063 6.84338C58.5764 6.84338 72.8974 21.7215 72.8974 40.0627C72.9027 43.5589 72.371 47.0351 71.321 50.3698C69.8265 49.862 68.2587 49.6032 66.6803 49.6037C62.9218 49.5852 59.3098 51.0601 56.6385 53.704C53.9673 56.348 52.4554 59.9446 52.4353 63.7031C52.4324 66.0097 53.0023 68.2809 54.094 70.3128C49.9697 72.2565 45.4657 73.262 40.9063 73.2568ZM75.911 63.7221C75.9003 64.9235 75.653 66.111 75.1832 67.2169C74.7135 68.3227 74.0306 69.3252 73.1734 70.167C72.3162 71.0089 71.3016 71.6737 70.1875 72.1235C69.0734 72.5732 67.8817 72.7991 66.6803 72.7883C65.8945 72.7886 65.1119 72.6907 64.3504 72.497C63.0929 72.1786 61.917 71.5977 60.9 70.7924C59.883 69.9871 59.048 68.9757 58.4498 67.8247C57.7907 66.5577 57.4476 65.1502 57.4495 63.7221C57.4603 62.5207 57.7076 61.3332 58.1773 60.2273C58.647 59.1215 59.3299 58.119 60.1871 57.2772C61.0443 56.4353 62.0589 55.7705 63.173 55.3207C64.2871 54.871 65.4789 54.6451 66.6803 54.6559C67.6178 54.6558 68.5501 54.7945 69.447 55.0675C70.7714 55.4739 71.987 56.174 73.0032 57.1157C74.0194 58.0573 74.8099 59.2162 75.3159 60.5059C75.7112 61.532 75.913 62.6225 75.911 63.7221Z" fill="#7E67EE"/>
</svg>
