<svg width="81" height="81" viewBox="0 0 81 81" fill="none" xmlns="http://www.w3.org/2000/svg">
<g clip-path="url(#clip0_2178_6281)">
<path d="M14.3083 2.0824H65.9749C72.6563 2.0824 78.1416 7.63466 78.1416 14.6123V65.5525C78.1416 72.5301 72.6563 78.0824 65.9749 78.0824H14.3083C7.62694 78.0824 2.1416 72.5301 2.1416 65.5525V14.6123C2.1416 7.63466 7.62694 2.0824 14.3083 2.0824Z" stroke="#B266FF" stroke-width="4"/>
<path d="M32.2751 47.9456H19.8751L17.3418 56.014C17.2751 56.3217 17.0084 56.5268 16.7084 56.4926H10.4418C10.0751 56.4926 9.97509 56.2875 10.0751 55.8773L20.8084 24.3217C20.9084 23.9798 21.0084 23.6721 21.1418 23.2619C21.2751 22.5439 21.3418 21.7918 21.3418 21.0396C21.3084 20.8687 21.4418 20.6978 21.6084 20.6636H21.7084H30.2418C30.4751 20.6636 30.6418 20.7661 30.6751 20.9371L42.8418 55.8089C42.9418 56.1849 42.8418 56.3559 42.5084 56.3559H35.5418C35.3084 56.3901 35.0751 56.2191 35.0084 55.9798L32.2751 47.7747V47.9456ZM21.8084 41.1422H30.2751C30.0751 40.4243 29.8084 39.5696 29.5084 38.6807C29.2084 37.7576 28.9084 36.7661 28.6084 35.7405C28.2751 34.6807 27.9751 33.655 27.6418 32.5952C27.3084 31.5354 27.0084 30.5439 26.7418 29.5525C26.4751 28.5952 26.2418 27.7063 26.0084 26.8858H25.9418C25.6418 28.3559 25.2751 29.826 24.8084 31.2961C24.3084 32.9371 23.8084 34.6465 23.2751 36.3559C22.8418 38.0995 22.3084 39.7063 21.8084 41.1422Z" fill="#B366FF"/>
<path d="M62.475 44.8687H51.9083C52.0417 45.9285 52.375 46.9883 52.9417 47.9114C53.5417 48.8345 54.375 49.5524 55.375 49.9627C56.7083 50.5439 58.175 50.8516 59.6417 50.8174C60.8083 50.7832 61.975 50.6806 63.1083 50.4413C64.1417 50.3046 65.1417 50.031 66.075 49.655C66.2417 49.5182 66.3417 49.5866 66.3417 49.9285V55.1593C66.3417 55.296 66.3083 55.4328 66.275 55.5695C66.2083 55.6721 66.1417 55.7404 66.0417 55.8088C64.975 56.2875 63.875 56.6293 62.7083 56.8345C61.1417 57.1422 59.575 57.2789 57.975 57.2447C55.4417 57.2447 53.3083 56.8345 51.575 56.0481C49.9417 55.3302 48.5083 54.202 47.375 52.8003C46.3083 51.4669 45.5417 49.9627 45.075 48.3216C44.6083 46.7148 44.375 45.0396 44.375 43.3302C44.375 41.484 44.6417 39.6721 45.2083 37.8943C45.7417 36.1849 46.575 34.6122 47.7083 33.2105C48.8083 31.843 50.175 30.749 51.7417 29.9627C53.3083 29.1763 55.175 28.9028 57.3083 28.9028C59.075 28.8687 60.8417 29.2105 62.475 29.9627C63.8417 30.5781 65.0417 31.5011 65.975 32.6977C66.8417 33.8601 67.5417 35.1593 67.975 36.5951C68.4083 37.9627 68.6083 39.3644 68.6083 40.7661C68.6083 41.5866 68.575 42.3046 68.5417 42.9541C68.475 43.6037 68.4417 44.0823 68.4083 44.39C68.375 44.6293 68.175 44.8345 67.9417 44.8345C67.7417 44.8345 67.375 44.8687 66.8417 44.9028C66.3083 44.9712 65.675 45.0054 64.9083 45.0054C64.1417 45.0054 63.3417 44.8687 62.475 44.8687ZM51.9083 39.8772H58.9417C59.8083 39.8772 60.4417 39.8772 60.8417 39.843C61.1083 39.8088 61.375 39.7404 61.6083 39.5695V39.2276C61.6083 38.7832 61.5417 38.3729 61.4083 37.9627C60.8083 36.0481 59.0417 34.749 57.075 34.8174C55.2417 34.7148 53.5083 35.7063 52.6417 37.4157C52.2417 38.202 52.0083 39.0225 51.9083 39.8772Z" fill="#B366FF"/>
</g>
<defs>
<clipPath id="clip0_2178_6281">
<rect width="80" height="80" fill="white" transform="translate(0.141602 0.0823975)"/>
</clipPath>
</defs>
</svg>
