<svg width="81" height="66" viewBox="0 0 81 66" fill="none" xmlns="http://www.w3.org/2000/svg">
<path d="M30.6873 37.512C30.9784 32.3214 33.516 27.735 37.3609 24.4943C41.1234 21.3085 46.1767 19.3586 51.7243 19.3586C57.2445 19.3586 62.2977 21.3058 66.0602 24.4943C69.9051 27.735 72.4317 32.3214 72.7338 37.512C73.025 42.8399 70.88 47.8107 67.1313 51.4909C63.2864 55.2259 57.8487 57.5877 51.7243 57.5877C45.6 57.5877 40.1347 55.2424 36.3173 51.4909C32.5548 47.8107 30.4126 42.8674 30.7147 37.5394L30.6873 37.512Z" fill="white"/>
<path d="M42.1947 36.8762C42.3443 34.2088 43.6484 31.8519 45.6242 30.1865C47.5577 28.5494 50.1546 27.5474 53.0054 27.5474C55.8422 27.5474 58.439 28.548 60.3725 30.1865C62.3483 31.8519 63.6467 34.2088 63.802 36.8762C63.9516 39.6141 62.8493 42.1686 60.9229 44.0597C58.947 45.9791 56.1527 47.1929 53.0054 47.1929C49.8582 47.1929 47.0497 45.9876 45.0879 44.0597C43.1544 42.1686 42.0536 39.6282 42.2088 36.8903L42.1947 36.8762Z" fill="#265787"/>
<path d="M25.2594 42.5215C25.2778 43.5658 25.6108 45.5981 26.1104 47.1788C27.1605 50.5377 28.9472 53.6427 31.417 56.3665C33.9574 59.175 37.0905 61.4331 40.7035 63.042C44.4999 64.7215 48.6209 65.5824 52.8972 65.5824C57.1735 65.5768 61.2946 64.7018 65.091 62.9997C68.704 61.3767 71.8371 59.1186 74.3775 56.2959C76.8614 53.5439 78.6397 50.439 79.684 47.08C80.2133 45.3865 80.5478 43.6646 80.6818 41.9428C80.8131 40.2492 80.7581 38.5416 80.5167 36.8339C80.0454 33.5173 78.8937 30.3983 77.1296 27.5756C75.5207 24.9647 73.4319 22.6925 70.948 20.7731L70.9537 20.7688L45.9733 1.57492C45.9507 1.55799 45.9324 1.53962 45.9084 1.5241C44.2713 0.265205 41.5051 0.269446 39.7127 1.53116C37.8921 2.80699 37.6804 4.91832 39.3034 6.24496L39.2964 6.25202L49.726 14.7341L17.9714 14.7679H17.929C15.304 14.7707 12.7777 16.4897 12.2838 18.6773C11.77 20.8931 13.5539 22.7418 16.2919 22.7418L16.2877 22.7517L32.3767 22.7207L3.58582 44.7373C3.54913 44.7641 3.50961 44.7923 3.47574 44.8191C0.766008 46.8937 -0.109012 50.3515 1.59868 52.5249C3.3346 54.7407 7.01814 54.7548 9.75609 52.5376L25.4217 39.6946C25.4217 39.6946 25.1931 41.4305 25.2114 42.4608L25.2594 42.5215ZM65.6231 48.322C62.3912 51.6103 57.8608 53.4874 52.9777 53.4874C48.0804 53.4959 43.5501 51.6527 40.3182 48.3643C38.7375 46.7554 37.5802 44.9207 36.8604 42.959C36.159 41.0255 35.8866 38.9791 36.0673 36.9185C36.2381 34.9004 36.8393 32.9669 37.8032 31.2309C38.746 29.5232 40.0472 27.9708 41.642 26.6583C44.7892 24.1038 48.7833 22.7066 52.9608 22.7066C57.1524 22.7009 61.1464 24.0741 64.2936 26.63C65.8884 27.9341 67.1868 29.4809 68.1324 31.1886C69.0963 32.9245 69.699 34.8439 69.8683 36.8762C70.0462 38.9367 69.7738 40.9831 69.0724 42.9166C68.3554 44.8925 67.1953 46.7272 65.6146 48.3361L65.6231 48.322Z" fill="#EA7600"/>
</svg>
