<svg width="83" height="83" viewBox="0 0 83 83" fill="none" xmlns="http://www.w3.org/2000/svg">
<path d="M70.1691 16.4508L69.5769 15.8218H69.5554C67.2574 13.4966 64.712 11.5681 62.1033 9.759C59.9995 8.29875 57.7564 7.19277 55.5645 6.20666C54.7765 5.85213 54.0103 5.51925 53.2573 5.19211C51.8573 4.58387 50.503 3.99549 49.1393 3.32483C49.103 3.30679 49.0379 3.269 48.8882 3.16959C48.8659 3.15476 48.84 3.13746 48.8114 3.11827C48.6841 3.03296 48.501 2.91019 48.3183 2.80015C47.8258 2.50347 47.1279 2.16343 46.2056 2.09069C45.2779 2.01752 44.1104 2.31551 43.2644 2.60222C42.793 2.76195 42.3136 2.95514 41.8807 3.17063C41.4793 3.37041 40.9912 3.65081 40.5992 4.02071L40.5989 4.02093C40.438 4.17283 40.139 4.47466 39.9332 4.91479C34.5664 5.20328 28.407 5.57179 23.0537 6.80756L23.0529 6.80775C16.7594 8.26343 12.2518 12.992 9.14722 18.299C6.03059 23.6266 4.16032 29.8083 3.23435 34.7344L3.23421 34.7351C1.75419 42.625 1.53732 51.4036 3.97565 59.1516C6.43775 66.975 11.6135 73.7299 20.755 77.3079C30.7743 81.2359 42.9325 80.852 53.5157 77.0788C64.0943 73.3072 73.4121 66.0291 77.4045 55.8327L77.4045 55.8326C82.6708 42.3816 80.3168 27.2299 70.1691 16.4508Z" fill="#3E3E3E" stroke="white" stroke-width="4"/>
<path d="M37.8501 10.8178C43.4376 10.5681 47.3123 13.036 52.0546 15.3469C53.3487 15.5181 54.5156 14.9475 55.6825 14.5196C57.0737 15.1972 58.48 15.8819 59.8264 16.6379C82.2815 29.2696 72.9987 66.0093 49.4067 71.7795C39.189 74.2759 23.9222 72.8494 15.9784 65.6527C8.76019 59.1193 8.28895 45.1538 9.67276 36.3808C10.8995 28.6134 14.5348 18.0858 22.5534 14.4982C27.0788 12.4725 32.8534 11.046 37.8501 10.8249V10.8178Z" fill="#FDFDFD"/>
<path d="M19.4869 43.4846C19.7562 43.1993 20.377 43.1066 20.6986 43.3847C21.0203 43.6629 21.3494 44.9111 21.5962 45.4532C24.0198 50.9238 32.7116 54.0407 38.5011 54.5115C46.3552 55.1534 53.1321 52.7711 58.1362 46.9866C58.5401 46.523 59.1834 45.1964 59.9688 45.8098C60.7542 46.4232 60.111 45.9239 60.1409 46.0024C60.2606 46.3804 59.9464 47.7284 59.8342 48.1778C55.5332 65.0248 21.3718 61.9864 19.3971 45.767C19.3373 45.2677 19.1652 43.8269 19.4869 43.4774V43.4846Z" fill="#3E3E3E"/>
<path d="M30.5126 36.9439C29.974 37.5145 29.1138 37.7784 28.3284 37.8212C23.1372 38.1351 23.3616 29.7829 28.7473 31.081C31.2082 31.673 32.1282 35.225 30.5126 36.9439Z" fill="#3E3E3E"/>
<path d="M52.2122 31.4235C55.9896 31.0169 57.4033 35.8742 54.1196 37.7358C49.4371 40.3891 46.7143 32.0155 52.2122 31.4235Z" fill="#3E3E3E"/>
</svg>
