<svg width="192" height="77" viewBox="0 0 192 77" fill="none" xmlns="http://www.w3.org/2000/svg">
<rect width="192" height="77" rx="10" fill="#FFD20A"/>
<g clip-path="url(#clip0_912_1750)">
<path d="M29.8892 34.0472C29.1585 33.5245 28.3737 33.2893 27.4266 33.2893C26.4253 33.2893 25.5594 33.9165 25.5594 34.6482C25.5594 35.0925 25.83 35.4322 26.5877 35.6935L27.8596 36.1116C29.2938 36.582 30.0515 37.3137 30.0515 38.542C30.0515 40.8939 27.9949 42.8015 24.6393 42.8015C23.0698 42.8015 21.9061 42.4095 20.959 41.8346L22.1497 40.1883C23.0698 40.7109 23.9087 41.0245 25.0452 41.0245C26.4524 41.0245 27.3725 40.319 27.3725 39.2475C27.3725 38.6988 26.9936 38.359 26.1818 38.0977L25.0182 37.7057C23.7463 37.2876 22.9886 36.6865 22.9886 35.4322C22.9886 33.2632 25.0993 31.5123 27.7513 31.5123C29.1044 31.5123 30.4033 31.9043 31.2422 32.5838L29.8892 34.0472Z" fill="black"/>
<path d="M35.8899 36.0477H34.4557L33.5897 40.0198C33.5356 40.2812 33.5086 40.5425 33.5086 40.7254C33.5086 41.1697 33.7521 41.3003 34.2392 41.3003C34.4286 41.3003 34.8075 41.2481 35.0511 41.1435V42.3979C34.4286 42.6331 33.7792 42.7376 33.238 42.7376C31.9931 42.7376 31.2896 42.1366 31.2896 41.3787C31.2896 41.0913 31.3166 40.7254 31.3978 40.3596L32.3449 36.0477H31.5331L31.8578 34.6104H32.6697C32.832 33.8265 32.9403 33.3299 33.1568 32.7289L35.4299 32.2063C35.1864 32.938 34.9428 33.8003 34.7804 34.6104H36.7018L35.8899 36.0477Z" fill="black"/>
<path d="M41.1027 36.0651C40.5615 36.0651 40.1826 36.0913 39.5873 36.7446C38.9107 37.5286 38.586 39.0704 38.586 40.1418C38.586 40.8474 38.7754 41.161 39.2355 41.161C39.912 41.161 40.5885 40.5076 40.8321 39.9327L41.671 36.1958C41.5898 36.1435 41.2921 36.0651 41.1027 36.0651ZM43.5923 36.9536L42.9428 39.9589C42.8075 40.6383 42.8617 41.1087 43.2405 41.5007L41.4545 42.7812C41.0756 42.546 40.8862 42.1279 40.8321 41.8143C40.2097 42.4415 39.5602 42.755 38.6401 42.755C37.1518 42.755 36.394 41.8665 36.394 40.2202C36.394 38.3125 37.1518 36.6401 38.126 35.6732C39.019 34.8108 40.0202 34.4449 41.4004 34.4449C42.3746 34.4449 43.4299 34.6017 44.1335 34.9937C43.9441 35.4902 43.7006 36.3526 43.5923 36.9536Z" fill="black"/>
<path d="M47.8185 34.3489C47.9538 34.6103 48.062 35.2897 48.035 35.6294C48.7115 34.9239 49.6045 34.4273 50.7952 34.4273C51.8506 34.4273 52.446 35.0284 52.446 35.9953C52.446 36.335 52.3918 36.7792 52.3107 37.119L51.12 42.5284H49.0092L50.1458 37.3803C50.1999 37.0667 50.254 36.8315 50.254 36.6747C50.254 36.2827 50.0916 36.1782 49.6857 36.1782C49.1716 36.1782 48.5762 36.4918 47.8997 37.3803L46.7631 42.5545H44.6523L45.816 37.2235C46.0054 36.3611 45.9783 35.6817 45.816 35.1329L47.8185 34.3489Z" fill="black"/>
<path d="M57.2323 33.4491L55.9334 39.3028C55.7169 40.2436 55.6628 40.6094 55.6628 40.8446C55.6628 41.1321 55.7981 41.2888 56.0687 41.2888C56.1499 41.2888 56.2311 41.2889 56.3123 41.2627L56.4205 42.4909C56.0416 42.6216 55.5545 42.7 55.0945 42.7C53.9309 42.7 53.3896 42.099 53.3896 41.2888C53.3896 41.0014 53.4979 40.4265 53.6332 39.8516L54.9321 33.9456C55.1486 32.9004 55.2839 32.1686 55.1216 31.646L57.3947 30.9927C57.4488 31.3585 57.4488 32.4561 57.2323 33.4491Z" fill="black"/>
<path d="M60.9839 37.8867C61.904 37.8867 62.9864 37.5731 62.9864 36.7892C62.9864 36.3188 62.7699 35.9791 62.1204 35.9791C61.3086 35.9791 60.6862 36.4494 60.3615 37.8083C60.3615 37.8083 60.6862 37.8867 60.9839 37.8867ZM64.15 41.6759C63.0405 42.4076 61.9581 42.7474 60.8215 42.7474C58.8731 42.7474 57.7095 41.7543 57.7095 39.8467C57.7095 38.2003 58.4672 36.5278 59.5496 35.4825C60.3615 34.7247 61.2815 34.4372 62.364 34.4372C63.9877 34.4372 65.1513 35.0644 65.1513 36.6062C65.1513 38.0958 63.7171 39.324 61.0109 39.324C60.4427 39.324 60.0367 39.2195 60.0367 39.2195C60.0367 39.2195 59.9555 39.7421 59.9555 39.925C59.9555 40.8135 60.4427 41.2055 61.3357 41.2055C62.0663 41.2055 62.8511 40.8919 63.6088 40.3693L64.15 41.6759Z" fill="black"/>
<path d="M68.4142 34.4929L68.8201 39.1183C68.8471 39.5887 68.8742 40.7647 68.8742 40.7647C68.8742 40.7647 69.4425 39.3796 69.9837 38.3866L72.0403 34.5974H74.3405L69.5778 42.6462C68.6848 44.188 68.1165 44.8413 67.44 45.2594C66.8175 45.6514 66.0598 45.8866 65.3021 45.9911L64.8691 44.6061C65.3562 44.5016 65.9516 44.3187 66.3034 44.1096C66.9528 43.7176 67.2235 43.3779 67.7376 42.5417H67.1423C67.1152 41.9406 67.034 40.9999 66.9258 40.3204L66.1951 34.7542L68.4142 34.4929Z" fill="black"/>
<path d="M77.6015 36.0866H78.9275C79.5499 36.0866 79.8205 35.9559 80.0911 35.773C80.4429 35.5378 80.7677 35.0935 80.7677 34.5709C80.7677 33.8914 80.47 33.6301 79.5228 33.6301H78.1157L77.6015 36.0866ZM76.5732 40.7904H78.0345C78.4945 40.7904 78.9004 40.6597 79.1981 40.4768C79.6852 40.1632 80.037 39.4838 80.037 38.8827C80.037 38.1249 79.604 37.8897 78.6028 37.8897H77.1956L76.5732 40.7904ZM80.2806 31.8008C81.9583 31.8008 83.1761 32.5848 83.1761 34.1266C83.1761 35.1719 82.4996 36.374 80.8488 36.8444C81.8772 37.0535 82.5266 37.9158 82.5266 38.935C82.5266 39.6144 82.229 40.6597 81.4712 41.4176C80.6594 42.2277 79.7123 42.5674 77.9804 42.5674H73.9482L76.3296 31.8008H80.2806Z" fill="black"/>
<path d="M87.6142 33.4491L86.3152 39.3028C86.0987 40.2436 86.0446 40.6094 86.0446 40.8446C86.0446 41.1321 86.1799 41.2888 86.4505 41.2888C86.5317 41.2888 86.6129 41.2889 86.6941 41.2627L86.8023 42.4909C86.4235 42.6216 85.9364 42.7 85.4763 42.7C84.3127 42.7 83.7715 42.099 83.7715 41.2888C83.7715 41.0014 83.8797 40.4265 84.015 39.8516L85.314 33.9456C85.5305 32.9004 85.6658 32.1686 85.5034 31.646L87.7765 30.9927C87.8307 31.3585 87.8307 32.4561 87.6142 33.4491Z" fill="black"/>
<path d="M93.0209 36.0651C92.4796 36.0651 92.1008 36.0913 91.5054 36.7446C90.8289 37.5286 90.5042 39.0704 90.5042 40.1418C90.5042 40.8474 90.6936 41.161 91.1536 41.161C91.8302 41.161 92.5067 40.5076 92.7502 39.9327L93.5891 36.1958C93.508 36.1435 93.2103 36.0651 93.0209 36.0651ZM95.5105 36.9536L94.861 39.9589C94.7257 40.6383 94.7798 41.1087 95.1587 41.5007L93.3727 42.7812C92.9938 42.546 92.8044 42.1279 92.7502 41.8143C92.1278 42.4415 91.4784 42.755 90.5583 42.755C89.0699 42.755 88.2852 41.8665 88.2852 40.2202C88.2852 38.3125 89.0429 36.6401 90.0171 35.6732C90.9101 34.8108 91.9114 34.4449 93.2915 34.4449C94.2657 34.4449 95.3211 34.6017 96.0246 34.9937C95.8623 35.4902 95.6458 36.3526 95.5105 36.9536Z" fill="black"/>
<path d="M102.363 36.6415C102.011 36.2495 101.551 36.0404 101.145 36.0404C100.766 36.0404 100.414 36.1972 100.144 36.5108C99.5482 37.1641 99.0069 38.8105 99.0069 40.0126C99.0069 40.8227 99.4129 41.1885 99.9811 41.1885C100.576 41.1885 101.172 40.8749 101.767 40.4045L102.498 41.685C101.605 42.3383 100.685 42.7303 99.494 42.7303C97.6809 42.7303 96.6797 41.7112 96.6797 40.0126C96.6797 38.0526 97.6268 36.2495 98.7634 35.3349C99.494 34.7338 100.306 34.3941 101.47 34.3941C102.227 34.3941 103.066 34.6816 103.634 35.3349L102.363 36.6415Z" fill="black"/>
<path d="M112.19 34.6155L108.835 38.065L111.054 42.5597H108.51L106.751 38.065L109.538 34.6155H112.19ZM107.888 31.0092C107.996 31.4012 107.996 32.342 107.617 33.9883L105.723 42.5597H103.585L105.506 33.8577C105.75 32.7601 105.777 32.1329 105.669 31.6887C105.642 31.6625 107.888 31.0092 107.888 31.0092Z" fill="black"/>
<path d="M118.15 34.4316C118.15 33.9874 117.825 33.6738 117.338 33.6738C116.635 33.6738 116.039 34.2487 116.039 34.9543C116.039 35.2679 116.174 35.6337 116.689 36.1825C117.582 35.8166 118.15 35.1372 118.15 34.4316ZM114.334 40.1285C114.334 40.8341 114.876 41.2522 115.85 41.2522C116.607 41.2522 117.257 41.0431 117.663 40.7034L115.579 38.2992C114.767 38.6912 114.334 39.3184 114.334 40.1285ZM121.478 37.28C121.289 38.3253 120.829 39.5274 120.261 40.3114L122.101 42.5327H119.259L118.718 41.8532C117.933 42.3759 116.986 42.7417 115.444 42.7417C113.225 42.7417 111.98 41.6703 111.98 40.2592C111.98 38.9525 112.9 37.8027 114.686 37.0971C114.037 36.4961 113.847 35.9996 113.847 35.3201C113.847 33.5954 115.498 32.2104 117.663 32.2104C119.314 32.2104 120.369 32.9943 120.369 34.118C120.369 35.3201 119.909 36.2086 117.906 37.0971L117.69 37.2017L119.178 38.9264C119.476 38.4821 119.692 37.5414 119.719 37.2539H121.478V37.28Z" fill="black"/>
<path d="M125.842 40.7905H126.952C127.899 40.7905 128.629 40.2678 129.035 39.6668C130.037 38.1772 130.226 36.0082 130.226 35.4333C130.226 34.4403 129.928 33.4995 128.44 33.4995H127.439L125.842 40.7905ZM128.088 31.8009C129.955 31.8009 131.092 32.01 131.796 32.8462C132.31 33.4734 132.634 34.179 132.634 35.4595C132.634 37.2365 131.985 39.5361 130.605 40.9473C129.441 42.1493 128.305 42.5675 125.869 42.5675H123.163L125.544 31.8009C125.517 31.8009 128.088 31.8009 128.088 31.8009Z" fill="black"/>
<path d="M136.498 37.8867C137.418 37.8867 138.5 37.5731 138.5 36.7892C138.5 36.3188 138.284 35.9791 137.634 35.9791C136.822 35.9791 136.2 36.4494 135.875 37.8083C135.875 37.8083 136.2 37.8867 136.498 37.8867ZM139.664 41.6759C138.554 42.4076 137.499 42.7474 136.335 42.7474C134.387 42.7474 133.223 41.7543 133.223 39.8467C133.223 38.2003 133.981 36.5278 135.063 35.4825C135.875 34.7247 136.795 34.4372 137.878 34.4372C139.501 34.4372 140.665 35.0644 140.665 36.6062C140.665 38.0958 139.231 39.324 136.525 39.324C135.956 39.324 135.55 39.2195 135.55 39.2195C135.55 39.2195 135.469 39.7421 135.469 39.925C135.469 40.8135 135.956 41.2055 136.849 41.2055C137.58 41.2055 138.365 40.8919 139.122 40.3693C139.095 40.3693 139.664 41.6759 139.664 41.6759Z" fill="black"/>
<path d="M147.081 36.6415C146.729 36.2495 146.269 36.0404 145.864 36.0404C145.485 36.0404 145.133 36.1972 144.862 36.5108C144.267 37.1641 143.726 38.8105 143.726 40.0126C143.726 40.8227 144.132 41.1885 144.7 41.1885C145.295 41.1885 145.891 40.8749 146.486 40.4045L147.217 41.685C146.324 42.3383 145.403 42.7303 144.213 42.7303C142.373 42.7303 141.398 41.7112 141.398 40.0126C141.398 38.0526 142.346 36.2495 143.482 35.3349C144.213 34.7338 145.025 34.3941 146.161 34.3941C146.919 34.3941 147.758 34.6816 148.353 35.3349L147.081 36.6415Z" fill="black"/>
<path d="M156.908 34.6155L153.58 38.065L155.799 42.5597H153.255L151.496 38.065L154.283 34.6155H156.908ZM152.605 31.0092C152.714 31.4012 152.714 32.342 152.335 33.9883L150.441 42.5597H148.303L150.224 33.8577C150.468 32.7601 150.495 32.1329 150.386 31.6887C150.386 31.6625 152.605 31.0092 152.605 31.0092Z" fill="black"/>
<path d="M159.977 37.8867C160.897 37.8867 161.979 37.5731 161.979 36.7892C161.979 36.3188 161.763 35.9791 161.113 35.9791C160.301 35.9791 159.679 36.4494 159.354 37.8083C159.354 37.8083 159.679 37.8867 159.977 37.8867ZM163.116 41.6759C162.006 42.4076 160.924 42.7474 159.787 42.7474C157.839 42.7474 156.675 41.7543 156.675 39.8467C156.675 38.2003 157.433 36.5278 158.515 35.4825C159.327 34.7247 160.247 34.4372 161.33 34.4372C162.953 34.4372 164.117 35.0644 164.117 36.6062C164.117 38.0958 162.683 39.324 159.977 39.324C159.408 39.324 159.003 39.2195 159.003 39.2195C159.003 39.2195 158.921 39.7421 158.921 39.925C158.921 40.8135 159.408 41.2055 160.301 41.2055C161.032 41.2055 161.817 40.8919 162.575 40.3693L163.116 41.6759Z" fill="black"/>
<path d="M167.781 34.3489C167.916 34.6103 168.051 35.1852 167.97 35.6294C168.701 34.9239 169.458 34.4273 170.27 34.4273C170.568 34.4273 170.73 34.4535 171.001 34.5841L170.081 36.4134C169.891 36.3089 169.702 36.2566 169.458 36.2566C169.053 36.2566 168.565 36.4918 167.916 37.328L166.779 42.5023H164.642L165.805 37.2758C166.022 36.2827 165.995 35.6033 165.832 35.0806L167.781 34.3489Z" fill="black"/>
</g>
<defs>
<clipPath id="clip0_912_1750">
<rect width="150" height="15" fill="white" transform="translate(21 31)"/>
</clipPath>
</defs>
</svg>
