<svg width="192" height="77" viewBox="0 0 192 77" fill="none" xmlns="http://www.w3.org/2000/svg">
<rect width="192" height="77" rx="10" fill="#0018A8"/>
<path d="M29.3981 50.7726H26V40.6153H29.3981C32.992 40.6153 34.9313 42.346 34.9313 45.6852C34.9135 49.0069 33.3122 50.7726 29.3981 50.7726ZM29.1491 42.1712H28.0282V49.2341H29.1135C31.9245 49.2866 32.8319 47.9404 32.8319 45.7027C32.8319 43.2376 31.5331 42.1712 29.1491 42.1712Z" fill="white"/>
<path d="M38.027 46.4893C38.0804 45.5627 38.543 44.7061 39.6105 44.7061C40.6423 44.7061 41.1583 45.4578 41.1049 46.4893H38.027ZM39.6816 43.5172C36.9595 43.5172 36.0166 45.4054 36.0166 47.1886C36.0166 49.304 37.1019 50.8949 39.4147 50.9648C41.265 50.9823 42.8841 50.4403 42.9908 48.4473H41.1049C41.1049 49.2515 40.4466 49.7585 39.6816 49.7585C38.3828 49.7585 37.9736 48.8144 37.9559 47.6606L43.1687 47.6431C43.3288 45.5627 42.3859 43.5172 39.6816 43.5172Z" fill="white"/>
<path d="M51.5308 50.7726H49.5915L49.5737 49.6187C49.2535 50.5278 48.3461 50.9998 47.2253 50.9998C45.9087 50.9998 44.6633 50.2131 44.6455 48.325V43.7621H46.6203V48.0628C46.6026 49.0768 47.0118 49.6362 47.9725 49.6537C48.8443 49.6537 49.5559 49.1642 49.5559 47.8005V43.7796H51.513V50.7726" fill="white"/>
<path d="M54.0572 43.7972V42.6958L55.9609 41.7167V43.8146H57.7756V45.1783H55.9609V48.5699C55.9609 49.2517 56.2099 49.6538 56.9216 49.6713C57.1885 49.6713 57.4375 49.7062 57.7934 49.6014V50.8076C56.8682 50.93 55.7829 51.1748 54.9112 50.7028C54.2351 50.3531 54.075 49.7412 54.075 48.7447V45.1608H52.5449V43.7972H54.0572Z" fill="white"/>
<path d="M65.1581 47.7482C65.4784 48.3601 65.4606 49.1818 65.0692 49.7413C64.3931 50.7552 62.9342 51 61.8133 50.9825C60.2121 50.8776 58.7888 50.4755 58.86 48.5874H60.7992C60.7814 49.4091 61.2974 49.6888 62.0446 49.7238C62.7563 49.7238 63.4679 49.479 63.4679 48.8322C63.4679 48.3077 62.9698 48.0804 62.3293 47.9406C61.5998 47.7832 61.0661 47.7133 60.2477 47.3986C59.5894 47.0839 58.9489 46.5769 58.9489 45.5804C58.9489 44.7587 59.5894 44.1469 60.4434 43.8147C61.0127 43.5699 61.7066 43.5 62.3115 43.5C63.6636 43.5 65.1403 43.9545 65.0514 45.6503H63.2189C63.2189 45.4056 63.1655 45.1259 62.952 44.951C62.5428 44.6014 61.3152 44.5489 60.9416 45.1259C60.5146 46.1049 61.8489 46.1748 63.3078 46.5769C64.2508 46.8042 64.8912 47.1888 65.1581 47.7482Z" fill="white"/>
<path d="M70.0335 43.5C71.5992 43.5 73.2004 44.1993 73.2004 46.1224L71.2967 46.1049C71.2967 45.2133 70.7985 44.6538 69.8556 44.7063C69.6065 44.7238 69.3574 44.8112 69.1439 44.9161C68.5568 45.2483 68.3611 46.1923 68.3611 47.1364C68.3611 48.1329 68.6102 49.0944 69.055 49.4441C69.3574 49.7238 69.8734 49.8112 70.336 49.7238C71.101 49.6014 71.3145 48.8671 71.3323 48.2378L73.2004 48.2203C73.2182 50.2308 71.5636 50.9825 69.82 50.965C67.4894 50.8776 66.4219 49.3916 66.4219 47.1888C66.4219 44.9511 67.7206 43.5 70.0335 43.5Z" fill="white"/>
<path d="M74.7129 40.633H76.6877V44.8638C77.2037 43.9722 77.9687 43.5701 79.0184 43.5701C80.335 43.5701 81.5803 44.5316 81.5803 45.9302V50.7554H79.6411V46.4547C79.6411 45.4931 79.2319 44.8638 78.3067 44.8638C77.435 44.8638 76.6877 45.4232 76.6877 46.7169V50.7379H74.7307V40.633" fill="white"/>
<path d="M85.1208 46.4893C85.1741 45.5627 85.6367 44.7061 86.7042 44.7061C87.7361 44.7061 88.252 45.4578 88.1987 46.4893H85.1208ZM86.7754 43.5172C84.0533 43.5172 83.1104 45.4054 83.1104 47.1886C83.1104 49.304 84.1956 50.8949 86.5085 50.9648C88.3588 50.9823 89.9778 50.4403 90.0846 48.4473H88.1987C88.1987 49.2515 87.5404 49.7585 86.7754 49.7585C85.4766 49.7585 85.0674 48.8144 85.0496 47.6606L90.2625 47.6431C90.4048 45.5627 89.4796 43.5172 86.7754 43.5172Z" fill="white"/>
<path d="M102.414 50.4754C101.756 50.6852 100.884 50.7726 99.9588 50.7726H96.2227V40.6502H100.19C101.969 40.6502 103.82 41.1922 103.891 43.1502C103.926 44.3915 103.072 45.1782 102.005 45.5279C102.823 45.7376 103.499 45.9824 103.962 46.7342C104.371 47.416 104.389 48.3076 104.069 49.0418C103.731 49.7411 103.197 50.2132 102.414 50.4754ZM100.19 42.1712H98.1797V44.7936H100.226C101.293 44.7936 101.845 44.3565 101.845 43.4999C101.845 42.6957 101.204 42.1712 100.19 42.1712ZM100.404 46.2971L98.1797 46.2796V49.2516H100.315C101.738 49.2516 102.201 48.5698 102.201 47.7132C102.201 47.0663 101.72 46.2971 100.404 46.2971Z" fill="white"/>
<path d="M108.64 49.7584C107.911 49.7059 107.484 49.3563 107.484 48.6745C107.502 47.2059 109.405 47.3633 110.384 47.3633C110.42 48.5171 110.331 49.7234 108.64 49.7584ZM112.252 45.6849C112.252 44.2514 110.686 43.5346 108.872 43.5521C107.146 43.587 105.883 44.129 105.865 45.7724H107.769C107.733 45.0206 108.249 44.6185 108.961 44.601C110.01 44.601 110.491 45.073 110.384 46.2619C109.334 46.3143 107.947 46.2444 106.897 46.7164C106.132 47.0661 105.562 47.7304 105.562 48.7793C105.562 50.1255 106.523 50.9472 107.911 50.9821C108.907 51.087 110.046 50.65 110.491 49.7409L110.562 50.7724H112.27C112.252 49.0765 112.252 47.3982 112.252 45.6849Z" fill="white"/>
<path d="M114.156 43.7623H116.131V44.8811C116.647 43.972 117.59 43.5699 118.657 43.5699C119.832 43.5699 121.059 44.2518 121.059 45.9301V50.7553H119.084V46.4546C119.102 45.5455 118.64 44.8637 117.75 44.8637C116.861 44.8637 116.131 45.4231 116.131 46.7168V50.7378H114.174V43.7623" fill="white"/>
<path d="M127.945 50.7729L124.938 46.7519L127.66 43.7624H129.973L127.162 46.6819L130.471 50.7729H127.945ZM122.945 40.633H124.885V50.7729H122.945V40.633Z" fill="white"/>
<path d="M140.915 26H166.001V50.7552H140.915V26ZM156.162 31.8741L146.359 44.7937H150.789L160.628 31.8741H156.162ZM144.42 47.3287H162.514V29.4266H144.42V47.3287Z" fill="white"/>
</svg>
