<svg width="192" height="77" viewBox="0 0 192 77" fill="none" xmlns="http://www.w3.org/2000/svg">
<rect width="192" height="77" rx="10" fill="#E60000"/>
<path d="M44.0194 22C34.6187 22 27 29.6115 27 39.0031C27 48.3885 34.6187 56 44.0194 56C53.42 56 61.0325 48.3885 61.0325 38.9969C61.0325 29.6115 53.4137 22 44.0194 22ZM44.1516 48.4766C39.4796 48.4955 34.6124 44.5073 34.5936 38.1036C34.581 33.8701 36.8666 29.7939 39.7882 27.3784C42.6405 25.0257 46.5443 23.5097 50.0829 23.4971C50.5363 23.4971 51.0148 23.5349 51.3107 23.6355C48.2128 24.2772 45.7509 27.1582 45.7635 30.4166C45.7635 30.5236 45.7698 30.6431 45.7824 30.6934C50.9644 31.9578 53.313 35.0779 53.3319 39.3994C53.3382 43.721 49.9255 48.4577 44.1516 48.4766Z" fill="white"/>
<path d="M72.0193 46.0359L66.8184 33.6311H70.2185L73.4611 41.8653L76.6031 33.6374H79.8458L74.796 46.0422H72.0193V46.0359Z" fill="white"/>
<path d="M88.9064 39.7705C88.9064 39.2547 88.8497 38.7641 88.7238 38.2986C88.6042 37.8331 88.4216 37.4305 88.1823 37.0971C87.943 36.7574 87.6534 36.4932 87.3071 36.2982C86.9608 36.0969 86.5578 35.9963 86.0982 35.9963C85.6385 35.9963 85.2293 36.0969 84.8892 36.2982C84.5429 36.4932 84.2533 36.7574 84.014 37.0971C83.7748 37.4305 83.5922 37.8331 83.4725 38.2986C83.3529 38.7641 83.2899 39.2547 83.2899 39.7705C83.2899 40.3052 83.3466 40.8022 83.4725 41.2551C83.5922 41.708 83.7685 42.1106 83.9952 42.4566C84.2281 42.8026 84.5178 43.073 84.8767 43.2743C85.2293 43.4693 85.6385 43.57 86.0982 43.57C86.5578 43.57 86.9671 43.4693 87.3071 43.2743C87.6534 43.073 87.943 42.8026 88.1823 42.4566C88.4216 42.1106 88.6042 41.7143 88.7238 41.2551C88.8434 40.8022 88.9064 40.3052 88.9064 39.7705ZM92.0484 39.7831C92.0484 40.5946 91.9224 41.3872 91.6769 42.1672C91.425 42.9472 91.0598 43.6455 90.5687 44.2619C90.0839 44.8784 89.4605 45.3754 88.7175 45.7528C87.9682 46.1302 87.0993 46.3189 86.1045 46.3189C85.1096 46.3189 84.2344 46.1302 83.4914 45.7528C82.7422 45.3754 82.1251 44.8784 81.634 44.2619C81.1491 43.6455 80.7776 42.9472 80.5258 42.1672C80.2802 41.3872 80.1543 40.5946 80.1543 39.7831C80.1543 38.9779 80.2802 38.1916 80.5258 37.4179C80.7776 36.6442 81.1428 35.9585 81.634 35.3483C82.1251 34.7382 82.7422 34.2538 83.4914 33.8827C84.2344 33.5115 85.1096 33.3291 86.1045 33.3291C87.0993 33.3291 87.9682 33.5178 88.7049 33.8827C89.4416 34.2538 90.0587 34.7382 90.5561 35.3483C91.0535 35.9585 91.4313 36.6505 91.6769 37.4179C91.9224 38.1916 92.0484 38.9779 92.0484 39.7831Z" fill="white"/>
<path d="M101.638 36.3615C101.021 36.1225 100.448 35.9967 99.9189 35.9967C99.3774 35.9967 98.9051 36.1036 98.5147 36.3112C98.1181 36.5188 97.7969 36.7955 97.5388 37.1478C97.2806 37.5001 97.0917 37.8964 96.9658 38.3367C96.8399 38.777 96.7706 39.23 96.7706 39.6892C96.7706 40.205 96.8273 40.6956 96.9406 41.1737C97.0477 41.6455 97.224 42.0607 97.4506 42.4129C97.6773 42.7652 97.967 43.0483 98.3196 43.2684C98.6722 43.4823 99.0877 43.5893 99.5663 43.5893C99.9629 43.5893 100.36 43.4823 100.769 43.2684C101.178 43.0546 101.468 42.7967 101.644 42.5073L101.638 36.3615ZM101.896 46.0362L101.77 45.0864C101.48 45.4135 101.096 45.6966 100.611 45.9482C100.133 46.1998 99.5663 46.3256 98.9177 46.3256C98.0614 46.3256 97.3058 46.1432 96.6636 45.7846C96.0087 45.4261 95.4609 44.9417 95.0202 44.3441C94.5731 43.7465 94.2331 43.0483 94.0065 42.2557C93.7798 41.4694 93.6602 40.6453 93.6602 39.7835C93.6602 38.9783 93.7798 38.1857 94.0191 37.4183C94.2583 36.6446 94.6235 35.9589 95.1083 35.3487C95.5995 34.7386 96.2102 34.2542 96.9469 33.8831C97.6836 33.5119 98.5462 33.3295 99.5411 33.3295C100.19 33.3295 100.895 33.449 101.65 33.6881V28.8758H104.843V46.0362H101.896Z" fill="white"/>
<path d="M113.822 40.2239C113.476 40.2428 113.123 40.2742 112.758 40.312C112.393 40.356 112.053 40.4126 111.725 40.4818C111.033 40.6202 110.554 40.8529 110.283 41.1863C110.019 41.526 109.88 41.8846 109.88 42.2809C109.88 42.6898 110.032 43.0231 110.334 43.2685C110.636 43.5138 111.064 43.6396 111.618 43.6396C112.034 43.6396 112.437 43.5578 112.827 43.3817C113.218 43.2119 113.551 42.9917 113.822 42.7401V40.2239ZM114.08 46.03L113.954 45.1053C113.608 45.489 113.167 45.7847 112.632 45.9985C112.097 46.2124 111.511 46.3256 110.875 46.3256C110.34 46.3256 109.824 46.2376 109.339 46.0552C108.848 45.879 108.413 45.6148 108.029 45.2814C107.651 44.948 107.343 44.5392 107.116 44.0485C106.883 43.5578 106.764 43.0043 106.764 42.3878C106.764 41.7713 106.883 41.2241 107.129 40.7523C107.368 40.2805 107.696 39.8842 108.111 39.5571C108.527 39.23 108.999 38.9658 109.534 38.7582C110.063 38.5506 110.63 38.3934 111.215 38.2927C111.631 38.2109 112.084 38.148 112.569 38.104C113.06 38.06 113.469 38.0222 113.797 37.9908V37.8083C113.797 37.1227 113.621 36.632 113.268 36.3427C112.915 36.0533 112.424 35.9023 111.807 35.9023C111.442 35.9023 111.096 35.9464 110.768 36.0344C110.441 36.1162 110.151 36.2232 109.887 36.3553C109.629 36.4874 109.402 36.6132 109.2 36.7453C109.005 36.8711 108.842 36.9906 108.722 37.0912L107.664 34.8518C107.803 34.7323 108.01 34.5876 108.294 34.4115C108.577 34.2417 108.917 34.0718 109.326 33.9083C109.729 33.7447 110.183 33.6063 110.686 33.4931C111.19 33.3799 111.738 33.3232 112.323 33.3232C113.01 33.3232 113.639 33.4113 114.206 33.5937C114.773 33.7762 115.264 34.0529 115.673 34.4429C116.082 34.8267 116.404 35.3173 116.637 35.9086C116.87 36.4999 116.983 37.217 116.983 38.0537V46.0237L114.08 46.03Z" fill="white"/>
<path d="M126.862 31.7062C126.761 31.6559 126.559 31.5804 126.257 31.4861C125.955 31.3917 125.558 31.3477 125.055 31.3477C124.608 31.3477 124.236 31.4798 123.934 31.7503C123.632 32.0145 123.487 32.4485 123.487 33.0524V33.6437H126.169V36.2165H123.512V46.0485H120.32V36.2102H118.67V33.6374H120.32V32.9706C120.32 32.1655 120.42 31.4861 120.628 30.9262C120.836 30.3727 121.119 29.9135 121.491 29.5675C121.862 29.2152 122.297 28.9573 122.794 28.7938C123.292 28.6302 123.833 28.5484 124.419 28.5484C125.193 28.5484 125.829 28.6176 126.333 28.7686C126.836 28.9133 127.139 29.0139 127.221 29.0642L126.862 31.7062Z" fill="white"/>
<path d="M135.57 39.7705C135.57 39.2547 135.507 38.7641 135.387 38.2986C135.268 37.8331 135.085 37.4305 134.846 37.0971C134.607 36.7574 134.317 36.4932 133.971 36.2982C133.624 36.0969 133.221 35.9963 132.762 35.9963C132.302 35.9963 131.893 36.0969 131.553 36.2982C131.206 36.4932 130.917 36.7574 130.671 37.0971C130.432 37.4305 130.249 37.8331 130.13 38.2986C130.01 38.7641 129.953 39.2547 129.953 39.7705C129.953 40.3052 130.01 40.8022 130.13 41.2551C130.249 41.708 130.426 42.1106 130.659 42.4566C130.892 42.8026 131.181 43.073 131.534 43.2743C131.886 43.4693 132.296 43.57 132.762 43.57C133.221 43.57 133.631 43.4693 133.971 43.2743C134.317 43.073 134.607 42.8026 134.846 42.4566C135.085 42.1106 135.268 41.7143 135.387 41.2551C135.507 40.8022 135.57 40.3052 135.57 39.7705ZM138.712 39.7831C138.712 40.5946 138.586 41.3872 138.334 42.1672C138.089 42.9472 137.717 43.6455 137.226 44.2619C136.741 44.8784 136.118 45.3754 135.375 45.7528C134.625 46.1302 133.757 46.3189 132.762 46.3189C131.767 46.3189 130.892 46.1302 130.149 45.7528C129.399 45.3754 128.782 44.8784 128.291 44.2619C127.806 43.6455 127.435 42.9472 127.183 42.1672C126.931 41.3872 126.812 40.5946 126.812 39.7831C126.812 38.9779 126.931 38.1916 127.183 37.4179C127.435 36.6442 127.8 35.9585 128.291 35.3483C128.782 34.7382 129.399 34.2538 130.149 33.8827C130.892 33.5115 131.767 33.3291 132.762 33.3291C133.757 33.3291 134.625 33.5178 135.362 33.8827C136.099 34.2538 136.716 34.7382 137.213 35.3483C137.711 35.9585 138.089 36.6505 138.334 37.4179C138.586 38.1916 138.712 38.9779 138.712 39.7831Z" fill="white"/>
<path d="M148.622 46.0359V38.9654C148.622 38.0218 148.427 37.2921 148.03 36.7763C147.633 36.2668 147.085 36.0026 146.38 36.0026C145.883 36.0026 145.423 36.1284 145.008 36.3926C144.586 36.6505 144.221 36.9335 143.912 37.2418V46.0421H140.72V33.6373H143.629L143.78 34.6124C144.277 34.2035 144.838 33.8827 145.467 33.6625C146.091 33.436 146.727 33.3291 147.356 33.3291C148.011 33.3291 148.609 33.4235 149.157 33.6248C149.705 33.826 150.177 34.1343 150.574 34.562C150.97 34.9898 151.273 35.5496 151.487 36.2353C151.701 36.921 151.808 37.745 151.808 38.7075V46.0421L148.622 46.0359Z" fill="white"/>
<path d="M161.751 38.343C161.719 37.9153 161.625 37.5379 161.48 37.2233C161.335 36.9025 161.153 36.6509 160.939 36.4496C160.725 36.2483 160.492 36.1036 160.24 36.0093C159.988 35.9149 159.736 35.8709 159.472 35.8709C158.917 35.8709 158.395 36.0785 157.891 36.4873C157.394 36.9025 157.098 37.5127 157.01 38.3367H161.751V38.343ZM156.94 40.6328C157.01 41.677 157.337 42.4318 157.923 42.8973C158.508 43.3565 159.27 43.5956 160.196 43.5956C160.63 43.5956 161.033 43.5578 161.411 43.4824C161.789 43.4069 162.129 43.3062 162.418 43.1867C162.714 43.0672 162.96 42.9477 163.168 42.8281C163.375 42.7086 163.526 42.5954 163.634 42.4885L164.484 45.0927C164.364 45.1745 164.169 45.294 163.904 45.4387C163.64 45.5834 163.306 45.7218 162.916 45.8539C162.519 45.9797 162.053 46.0929 161.524 46.1873C160.995 46.2816 160.41 46.3256 159.774 46.3256C158.962 46.3256 158.2 46.1998 157.469 45.9419C156.739 45.684 156.103 45.2814 155.555 44.7404C155.007 44.1995 154.567 43.5264 154.239 42.7212C153.912 41.916 153.748 40.9536 153.748 39.8402C153.748 38.796 153.899 37.865 154.195 37.0598C154.497 36.2546 154.907 35.5752 155.429 35.028C155.952 34.4807 156.563 34.0592 157.255 33.7636C157.954 33.4742 158.691 33.3232 159.484 33.3232C160.278 33.3232 161.002 33.4553 161.675 33.7133C162.343 33.9712 162.922 34.3675 163.413 34.9084C163.898 35.4494 164.288 36.1477 164.572 37.0095C164.855 37.865 165 38.884 165 40.0729V40.6391H156.94V40.6328Z" fill="white"/>
</svg>
