<svg width="192" height="77" viewBox="0 0 192 77" fill="none" xmlns="http://www.w3.org/2000/svg">
<rect width="192" height="77" rx="10" fill="#ED1C24"/>
<g clip-path="url(#clip0_912_1726)">
<path d="M109.374 21C109.39 25.1147 109.374 33.3441 109.374 33.3441C110.474 31.5974 112.364 31.3959 114.286 31.3791C115.814 31.3623 119.806 31.3287 120.315 31.3623C122.221 31.4966 124.127 32.202 125.014 34.1166C125.359 34.1166 125.228 33.7303 125.441 33.5792C126.345 32.0173 127.791 31.5806 129.368 31.4966C130.847 31.4127 135.447 31.4127 136.219 31.4798C137.993 31.6478 139.636 32.2356 140.425 34.083C140.852 35.0739 141.016 36.1488 141 37.3244V44.798H133.41V55.9328H124.669L124.686 54.1022C124.505 54.1694 124.39 54.4213 124.242 54.5725C123.223 55.5969 121.893 56.0504 120.398 56L112.873 55.9496C111.591 55.8153 110.524 55.2274 109.571 54.2869L109.554 55.916H92.1062V53.8503C91.0548 55.1771 89.5761 55.8992 87.8675 55.8824L79.9814 55.8489C78.0263 55.7817 76.8105 55.1771 76.1041 53.7495V55.8489H51V35.88C51.0821 33.9822 52.2651 32.1684 54.0887 31.547C55.1402 31.2951 56.241 31.2279 57.4074 31.2615L71.7338 31.2783C73.1632 31.4295 74.4283 32.118 75.3154 33.3105V31.2783H77.0077C77.1062 31.1943 76.8434 31.1104 76.9748 31.0432C76.5476 30.3714 76.0383 29.7332 75.7919 28.9774C75.2169 27.2644 75.7426 25.417 76.9748 24.2246C78.1413 23.1665 79.7678 22.7634 81.3615 23.1665C82.3636 23.4688 83.2673 24.0566 84.0559 24.9131L84.2366 24.8796C85.5016 23.3177 87.5717 22.6795 89.5104 23.3512C90.4797 23.6536 91.3341 24.3757 92.0241 25.1651V21.0168H109.374V21Z" fill="#231F20"/>
<path d="M99.9761 22.0581H93.1743V54.8916H99.9761V22.0581Z" fill="white"/>
<path d="M108.174 22.0413H101.373V54.8915H108.174V22.0413Z" fill="white"/>
<path d="M83.0703 25.5513C83.7604 26.4918 83.9082 28.0537 83.3496 29.0782C82.7746 30.3714 81.4602 31.0936 80.113 31.1272C78.733 31.1104 77.4186 30.1867 76.8765 28.9103C76.4 27.8522 76.63 26.4583 77.2379 25.5345C78.0922 24.4093 79.3737 23.8887 80.8031 24.0734C81.6903 24.2749 82.5282 24.6948 83.0703 25.5513Z" fill="white"/>
<path d="M91.1698 26.1559C91.7612 27.298 91.4655 28.8095 90.759 29.7836C89.8719 30.8752 88.6232 31.3119 87.2103 31.0936C86.0931 30.8584 84.9923 29.8172 84.6473 28.7255C84.2859 27.6003 84.483 26.2735 85.1895 25.3834C86.0767 24.3589 87.3253 23.8887 88.6561 24.107C89.6747 24.3589 90.759 25.1147 91.1698 26.1559Z" fill="white"/>
<path d="M71.8488 32.3364C72.8017 32.5043 73.7546 33.0417 74.2968 33.9319C74.7568 34.7548 74.8882 35.7121 74.9047 36.7366V54.7404H68.1851V38.0633C68.1194 37.7778 67.9386 37.4419 67.61 37.3748C67.3965 37.3244 67.265 37.4419 67.1007 37.5091C66.8379 37.6939 66.8707 37.9962 66.7886 38.2313L66.7721 54.7236H60.0854V38.0297C60.0197 37.8114 59.9211 37.5763 59.6911 37.4587C59.4939 37.4587 59.2804 37.2908 59.0996 37.4587C58.9025 37.5931 58.771 37.845 58.7053 38.0633L58.7218 54.7068H52.0679V36.1991C52.2157 34.8892 52.5936 33.5288 53.8422 32.8066C54.4008 32.5379 54.9594 32.3028 55.633 32.3028L71.8488 32.3364Z" fill="white"/>
<path d="M83.3328 49.0302C83.4149 49.2822 83.5628 49.5677 83.8257 49.6852C84.1214 49.786 84.4171 49.6852 84.6472 49.5005C84.9593 49.215 84.9593 48.8119 84.9429 48.3752V32.286H91.6625L91.6296 51.2639C91.4818 52.5739 90.8246 53.9511 89.4938 54.5053C89.0009 54.6564 88.4916 54.8076 87.9166 54.7908L79.8498 54.7404C78.8147 54.5725 77.7304 54.3541 77.1225 53.3297C76.7282 52.7083 76.5146 52.0197 76.4653 51.2639V32.286H83.3164L83.3328 49.0302Z" fill="white"/>
<path d="M120.907 32.4371C122.32 32.6891 123.585 33.2433 123.831 34.3013C124.291 35.2251 124.258 36.3503 124.258 37.4755V43.7063H116.274C116.307 44.9659 116.274 49.0974 116.274 49.0974C116.356 49.2822 116.438 49.5845 116.635 49.6516C116.865 49.87 117.243 49.87 117.605 49.6348C117.95 49.3661 117.917 48.9463 117.966 48.5432V45.0163H124.258V51.583C124.078 52.9266 123.223 54.3709 121.843 54.7404L120.513 54.9252L112.889 54.8916C111.805 54.7908 110.754 54.1862 110.195 53.1785C109.669 52.2884 109.587 51.2135 109.603 50.0883L109.636 35.7793C109.801 34.4861 110.638 33.0585 111.969 32.6555C112.265 32.5547 112.61 32.4707 112.971 32.4204C113.464 32.3532 120.348 32.3364 120.907 32.4371Z" fill="white"/>
<path d="M136.449 32.4875C137.566 32.5883 138.733 33.344 139.292 34.3349C139.768 35.2586 139.85 36.3671 139.834 37.4923V43.7399H133.706L133.722 38.2145C133.656 37.9626 133.459 37.6771 133.18 37.5931C132.95 37.5091 132.687 37.5595 132.49 37.6939C132.227 37.9458 132.145 38.2817 132.128 38.6511V54.858H125.737V35.7793C125.934 34.6372 126.509 33.4616 127.577 32.9242C128.087 32.6891 128.629 32.5043 129.22 32.4875H136.449Z" fill="white"/>
<path d="M117.785 37.9626L117.884 38.4328V42.2452H116.274V38.1977C116.356 37.8786 116.635 37.5931 116.964 37.5259C117.293 37.5091 117.605 37.6603 117.785 37.9626Z" fill="#231F20"/>
</g>
<defs>
<clipPath id="clip0_912_1726">
<rect width="90" height="35" fill="white" transform="translate(51 21)"/>
</clipPath>
</defs>
</svg>
