<svg width="192" height="77" viewBox="0 0 192 77" fill="none" xmlns="http://www.w3.org/2000/svg">
<rect width="192" height="77" rx="10" fill="#00AEEF"/>
<g clip-path="url(#clip0_908_99)">
<path d="M60.8615 37.148C62.9199 36.6193 65.178 35.1541 65.178 32.7673C65.178 29.2024 61.691 29.1118 59.9399 29.1118H52.628C52.9967 29.3988 53.1349 30.2145 53.1657 31.5136C53.1964 33.009 53.0428 35.1541 52.8584 37.9335L52.7816 39.0815C52.4283 43.9758 52.2133 46.7704 51.3838 47.4803H57.9122C62.9045 47.4803 65.946 44.9577 65.946 41.7704C65.946 38.8096 63.7801 37.4199 60.8615 37.148ZM56.5144 35.2447C56.6065 33.8852 56.7294 32.6465 56.9291 31.3625C57.3899 31.3172 57.8815 31.3172 58.2348 31.3172C60.4468 31.3172 61.476 32.1631 61.476 33.4018C61.476 35.5468 59.2947 36.3474 56.9137 36.3474H56.4376C56.4376 36.4078 56.5144 35.2447 56.5144 35.2447ZM57.7125 45.2145C56.4529 45.2145 55.9306 44.8519 55.9306 44.7009C55.946 43.5075 56.0074 42.5105 56.0996 41.3172L56.2993 38.6133H57.6203C60.0935 38.6133 62.0597 39.4743 62.0597 41.8308C62.0597 43.9305 60.3392 45.2145 57.7125 45.2145Z" fill="white"/>
<path d="M80.7233 39.2779L79.9245 36.3776C78.9722 33.0695 77.9123 29.0967 77.9123 29.0967H73.8416C73.9952 29.4139 74.0874 29.7462 74.0874 30.1088C74.0874 30.5166 72.8278 33.3112 71.645 35.8036L70.3393 38.5529C68.0966 43.281 66.4683 46.2115 65.1934 47.4653H69.6788C69.5866 47.1027 69.5559 46.8761 69.5559 46.6344C69.5405 45.6073 70.4775 43.8399 70.8616 42.994L71.2456 42.1934H73.4729C75.6849 42.1934 77.052 42.0272 77.8354 41.6647L78.2963 43.2659C79.5712 47.6012 79.6941 47.6465 81.2917 47.6465C81.7986 47.6465 83.1043 47.6012 84.1488 47.4653C82.9814 46.5438 82.1058 44.1722 80.7233 39.2779ZM72.3669 39.8066L75.3931 33.4018L77.2824 39.8066H72.3669Z" fill="white"/>
<path d="M98.9722 44.4592L95.1627 39.5045C94.9015 39.1722 94.4561 38.6284 94.2257 38.4018C96.7141 37.6465 98.7264 36.0302 98.7264 33.0695C98.7264 29.4743 95.6235 29.0967 93.3808 29.0967H86.4837C86.8524 29.3837 86.9906 30.1843 87.0214 31.4985C87.0367 32.994 86.8985 35.139 86.6988 37.9033L86.6373 39.0665C86.2226 44.6858 85.9461 46.8308 85.2241 47.4653H90.2779C89.9399 47.1631 89.7863 46.3928 89.771 45.1541C89.771 44.0363 89.8478 42.5408 89.9707 40.6526L90.0628 39.2628H90.1857C90.8309 39.2628 91.1535 39.716 91.5682 40.2749L96.8063 47.4048C97.2671 48.0242 97.6051 48.2508 98.9876 48.2508C99.9092 48.2508 101.338 48.2054 102.398 48.0846C101.537 47.6616 101.353 47.5257 98.9722 44.4592ZM91.0767 37.0725C90.7848 37.0725 90.4776 37.0423 90.2318 36.997L90.3393 35.713C90.5083 33.5227 90.6312 32.1631 90.7694 31.3776C91.2149 31.3323 91.7679 31.3323 92.2287 31.3323C93.9952 31.3323 95.0091 32.1631 95.0091 33.5982C95.0091 35.6828 93.4115 37.0725 91.0767 37.0725Z" fill="white"/>
<path d="M108.926 47.8278C112.628 47.8278 114.886 46 115.854 42.9486C113.457 44.5952 112.029 45.0181 110.401 45.0181C107.405 45.0181 105.147 42.858 105.147 38.9003C105.147 35.2598 106.775 31.0151 110.754 31.0151C112.766 31.0151 114.272 32.1329 115.193 33.7794L115.685 29.0967C114.057 29.0967 113.104 28.7341 111.107 28.7341C104.686 28.7341 101.322 33.4471 101.322 39.5498C101.322 43.9305 104.103 47.8278 108.926 47.8278Z" fill="white"/>
<path d="M141.307 39.2779L140.508 36.3776C140.14 35.0937 138.496 29.0967 138.496 29.0967H134.426C134.579 29.4139 134.671 29.7462 134.671 30.1088C134.671 30.6073 133.458 33.2205 132.229 35.8036L130.923 38.5529C129.955 40.5921 128.972 42.571 128.081 44.142C126.684 45.0786 125.9 45.139 122.813 45.139C121.937 45.139 121.599 44.9426 121.599 44.1118C121.599 42.3142 121.845 40.4411 121.968 38.6435L122.075 37.4804C122.413 32.6012 122.674 29.6556 123.412 29.1118H118.296C118.634 29.4592 118.757 30.2447 118.788 31.4834C118.803 32.994 118.665 35.139 118.481 37.9184L118.404 39.0816C118.035 43.9607 117.805 46.6495 117.052 47.4804H130.247C130.155 47.148 130.124 46.8912 130.124 46.6495C130.124 45.6526 130.877 44.2175 131.43 43.0091L131.814 42.2085H134.041C136.238 42.2085 137.621 42.0423 138.404 41.6798L138.865 43.281C140.155 47.6163 140.278 47.6616 141.86 47.6616C142.367 47.6616 143.75 47.6163 144.717 47.4804C143.565 46.5438 142.69 44.1722 141.307 39.2779ZM132.982 39.8066L135.977 33.4018L137.866 39.8066H132.982Z" fill="white"/>
<path d="M153.596 37.571C154.517 36.0453 158.88 29.3082 159.832 29.0967H154.825C155.009 29.3082 155.086 29.7764 155.086 30.1994C155.086 30.7432 154.84 31.3172 154.564 31.7704C153.396 33.6284 152.505 34.9728 151.215 36.9668C150.693 35.4562 149.786 33.432 148.573 30.7432C147.805 29.0816 147.467 28.9154 146.207 28.9154C145.501 28.9154 144.057 28.9909 142.92 29.0816C143.565 29.3837 144.625 30.9849 145.501 32.6616C146.914 35.3505 147.82 37.5559 148.511 39.8822C148.557 41.4985 148.204 46.6193 147.298 47.4501H152.352C151.968 47.0725 151.829 45.9547 151.829 45.1239C151.829 43.1299 151.968 41.3172 152.275 39.9577C152.597 39.2628 153.15 38.281 153.596 37.571Z" fill="white"/>
<path d="M171 29.0967C169.709 29.0967 168.45 28.7341 166.438 28.7341C162.981 28.7341 159.633 30.0483 159.633 33.9758C159.633 36.6042 161.568 38.0544 164.625 39.852C166.069 40.713 167.267 41.574 167.267 42.9486C167.267 44.5801 165.808 45.5015 163.857 45.5015C161.322 45.5015 159.602 44.0514 158.68 42.2085L158.373 46.8157C160.278 47.5257 161.983 47.8278 163.596 47.8278C167.544 47.8278 170.954 45.713 170.954 42.2689C170.954 39.6254 168.88 38.0997 166.868 36.861C165.024 35.6979 163.258 34.7462 163.258 33.3263C163.258 31.6646 164.671 31.0151 166.253 31.0151C168.066 31.0151 169.74 32.0725 170.524 33.4471L171 29.0967Z" fill="white"/>
<path d="M43.7188 31.3927C43.4576 30.8791 43.0736 30.2296 42.4745 29.7613C42.1673 29.5196 41.7986 29.3384 41.3532 29.2024C41.0306 29.0967 40.6927 29.0513 40.3547 29.0513H40.3086C39.8632 29.0513 39.049 29.1571 38.496 29.7915C38.2503 30.0785 38.1581 30.4864 38.2503 30.864C38.3424 31.1813 38.5421 31.4078 38.834 31.5136C38.834 31.5136 38.9261 31.5438 39.0797 31.574C39.0337 31.6495 38.9415 31.8006 38.9415 31.8006C38.7572 32.0725 38.3271 32.435 37.1596 32.435H37.0982C36.4837 32.3897 35.9768 32.2387 35.3778 31.4834C35.0091 31.0151 34.8248 30.2296 34.794 28.9305C34.7633 28.281 34.6865 27.722 34.5175 27.2689C34.41 26.9668 34.1642 26.6495 33.9185 26.4985C33.7188 26.3625 33.5344 26.2568 33.1811 26.151C32.7817 26.0302 32.2748 26 31.9062 26C31.4146 25.9849 31.1381 26.1057 30.9691 26.3021C30.9384 26.3323 30.9384 26.3474 30.8923 26.3474C30.8002 26.3474 30.6005 26.3474 30.539 26.3474C30.2625 26.3474 30.0014 26.3927 29.771 26.4381C29.2641 26.5438 28.9569 26.7402 28.6804 26.9668C28.5575 27.0725 28.3117 27.3444 28.2503 27.6465C28.2042 27.9033 28.2503 28.0393 28.3117 28.1601C28.3271 28.1752 28.3578 28.2205 28.3578 28.2356C28.5114 28.0846 28.7572 27.9637 29.2334 27.9637C29.7556 27.9637 30.4776 28.2054 30.7387 28.5982C31.092 29.1722 31.0306 29.6254 30.9538 30.1843C30.7541 31.5891 30.2318 32.3142 29.049 32.4804C28.8493 32.5106 28.6496 32.5257 28.4499 32.5257C27.6205 32.5257 27.0214 32.2689 26.7142 31.7855C26.6374 31.6495 26.622 31.6042 26.622 31.6042C26.622 31.6042 26.7142 31.5891 26.791 31.5438C27.0982 31.3927 27.344 31.1813 27.4208 30.8489C27.5129 30.4864 27.4208 30.0634 27.175 29.7915C26.7295 29.3081 26.1151 29.0513 25.347 29.0513C24.9169 29.0513 24.5483 29.1269 24.3025 29.2024C23.3347 29.4743 22.5667 30.1843 21.9369 31.4078C21.4914 32.2689 21.1996 33.4018 21.0767 34.6103C20.9538 35.7885 21.0152 36.7855 21.092 37.6918C21.2303 39.1873 21.4761 40.0936 21.8447 41.0453C22.2287 42.0423 22.6896 42.9939 23.1965 43.8097C23.3655 44.0816 23.4883 44.2779 23.5498 44.3686C23.5652 44.3535 23.5805 44.3384 23.5805 44.3233C23.642 44.2628 23.7341 44.1722 23.8724 44.0362C24.0721 43.8399 24.6404 43.0997 24.8094 42.8731C24.9784 42.6465 25.2702 42.1933 25.4238 41.861L25.516 41.6797L25.6696 41.8006C25.8386 41.9365 25.9461 42.1631 25.9307 42.4199C25.9307 42.6465 25.8693 42.9033 25.7311 43.3867C25.5774 43.9003 25.3163 44.5196 25.0091 45.0785C24.9784 45.1541 24.9323 45.2145 24.9016 45.2749C24.7019 45.6374 24.6097 45.8036 24.6865 45.8791L24.7172 45.8942C24.7326 45.8942 24.748 45.8942 24.7633 45.8942C24.8862 45.8942 25.132 45.7734 25.3931 45.577C25.6235 45.3958 26.2533 44.8822 27.0214 43.8248C27.5897 43.0393 28.0506 42.2689 28.496 41.3323L28.5575 41.1964L28.6957 41.2568C28.7725 41.287 28.8493 41.3625 28.8954 41.4381C28.9876 41.5891 29.0183 41.8006 28.9876 42.0272C28.9108 42.5861 28.5882 43.432 28.3117 44.0513C27.8662 45.0936 27.0214 46.2568 26.4069 47.0574C26.3762 47.0876 26.238 47.2689 26.2072 47.2991C26.2533 47.3444 26.3916 47.4501 26.5298 47.571L26.7602 47.7523C27.6051 48.432 28.4039 48.9607 29.4023 49.5196C30.1704 49.9426 31.7526 50.7281 32.7971 51C33.8417 50.7281 35.4085 49.9426 36.1919 49.5196C37.1903 48.9758 38.0045 48.432 38.834 47.7523L39.0644 47.571C39.218 47.4501 39.3409 47.3444 39.4023 47.284C39.3716 47.2387 39.3255 47.1782 39.2948 47.148C39.2641 47.1178 39.2334 47.0876 39.218 47.0574C38.6036 46.2568 37.7741 45.0936 37.3132 44.0513C37.0521 43.432 36.7142 42.5861 36.6374 42.0272C36.6066 41.8006 36.6374 41.5891 36.7295 41.4381C36.7602 41.3776 36.8217 41.3323 36.8831 41.287C36.9753 41.2266 37.0675 41.1964 37.0675 41.1964L37.1289 41.3323C37.5744 42.2689 38.0352 43.0242 38.6036 43.8248C39.3716 44.8671 40.0014 45.3958 40.2318 45.577C40.493 45.7734 40.7234 45.8942 40.8616 45.8942C40.877 45.8942 40.8923 45.8942 40.9077 45.8791C41.0152 45.8036 40.9231 45.6374 40.708 45.2598C40.6773 45.1994 40.6312 45.1239 40.6005 45.0634C40.2933 44.5045 40.0321 43.8852 39.8785 43.3565C39.7403 42.8882 39.6942 42.6163 39.6788 42.3897C39.6788 42.1329 39.771 41.9063 39.94 41.7704L40.0936 41.6495L40.1857 41.8308C40.3547 42.1782 40.6619 42.6465 40.8002 42.8429C40.9538 43.0695 41.5375 43.7945 41.7372 44.006C41.8754 44.142 41.9676 44.2326 42.0291 44.293C42.0444 44.3081 42.0598 44.3233 42.0598 44.3384C42.1212 44.2477 42.2441 44.0665 42.3977 43.8097L42.4284 43.7643C42.92 42.9637 43.3962 42.0121 43.7648 41.0151C44.1335 40.0483 44.3793 39.1571 44.5175 37.6616C44.5943 36.7704 44.6558 35.7734 44.5329 34.5952C44.4715 33.432 44.1489 32.2387 43.7188 31.3927Z" fill="white"/>
</g>
<defs>
<clipPath id="clip0_908_99">
<rect width="150" height="25" fill="white" transform="translate(21 26)"/>
</clipPath>
</defs>
</svg>
