<svg width="200" height="85" viewBox="0 0 200 85" fill="none" xmlns="http://www.w3.org/2000/svg">
<g filter="url(#filter0_d_912_2608)">
<rect x="4" width="192" height="77" rx="10" fill="#F40505"/>
<path fill-rule="evenodd" clip-rule="evenodd" d="M84.1184 11C91.104 11 97.1014 13.8093 99.8203 15.8892C100.3 16.2539 100.58 16.214 100.946 15.9689C102.756 14.7609 108.217 11.0456 115.734 11.0456C124.81 11.0456 134 15.6213 134 25.5877C134 31.6906 129.83 38.0557 122.673 42.3978C120.868 43.5033 118.749 44.4435 116.476 45.2584C115.179 45.7256 114.608 45.19 115.968 44.1871C119.321 41.7026 127.911 35.1609 127.911 26.9781C127.911 21.4166 122.742 15.8607 113.831 15.8607C107.029 15.8607 102.002 19.6615 101.06 20.3054C100.574 20.6359 100.26 20.5789 99.8488 20.2199C97.387 18.0374 92.3777 15.6897 86.5688 15.6897C79.4804 15.6897 73.0945 19.576 73.0945 26.4881C73.0945 39.0871 95.028 44.2612 100.351 44.2612C101.677 44.2612 113.42 40.1755 113.42 30.3401C113.42 26.8642 111.255 24.5734 108.394 24.5734C104.658 24.5734 102.505 27.7075 101.048 29.4512C100.717 29.8501 100.203 30.0267 99.8888 29.4512C98.598 27.1092 96.0676 24.5051 92.6176 24.5051C89.5504 24.5051 87.7226 26.7217 87.7226 29.1549C87.7226 34.8931 95.7306 38.4603 99.4662 39.7424C100.192 39.9874 100.18 40.7624 99.1691 40.6598C93.8514 40.1584 80.6399 36.1524 80.6399 27.5992C80.6399 24.072 83.69 20.1458 89.7731 20.1458C93.8685 20.1458 97.7469 22.3853 100.032 25.1262C100.254 25.394 100.626 25.3541 100.826 25.1547C101.025 24.9609 105.789 20.3111 111.478 20.3111C115.545 20.3111 119.949 23.0805 119.949 28.9213C119.949 34.9501 114.654 40.996 110.193 43.7654C105.601 46.5975 101.231 47.8739 100.152 47.7884C82.5534 46.3525 67 36.2037 67 24.2372C67 18.3452 71.5009 11 84.1184 11Z" fill="white"/>
<path fill-rule="evenodd" clip-rule="evenodd" d="M127.357 65.6807C125.626 65.6807 124.438 64.9513 123.421 63.521L125.312 61.6805C125.803 62.3244 126.449 62.9512 127.305 62.9512C127.899 62.9512 128.459 62.5067 128.459 61.8628C128.459 61.2018 128.025 60.8599 127.46 60.6662L126.254 60.2559C124.644 59.7032 123.524 58.5236 123.524 56.7172C123.524 54.5519 125.095 52.7284 127.248 52.7284C128.962 52.7284 130.064 53.5718 131.064 54.928L129.156 56.8426C128.716 56.1987 128.105 55.5035 127.283 55.5035C126.654 55.5035 126.18 55.9708 126.18 56.6147C126.18 57.2757 126.74 57.5606 127.265 57.76L128.522 58.2045C130.099 58.7572 131.075 60.0109 131.075 61.709V61.766C131.081 63.8743 129.47 65.6807 127.357 65.6807ZM119.457 57.9196L117.778 57.0249L119.772 52.0161L122.085 53.2299L119.457 57.9196ZM110.324 65.5212V52.8994H113.003V62.8714H117.081V65.5155H110.324V65.5212ZM100.711 65.5212V52.8994H103.384V62.8714H107.462V65.5155H100.711V65.5212ZM98.1807 64.769L92.0405 52.3979L85.8489 64.769L88.2478 65.9656L89.3159 63.5495H94.7422L95.8103 65.9257L98.1807 64.769ZM93.5656 61.0993H90.4355L92.0119 57.6119L93.5656 61.0993ZM80.8453 65.9998L77.9437 58.9225L75.042 65.9998L69.9014 53.5604L72.3518 52.3808L75.1848 59.9083L77.9665 52.3466L80.8681 59.9083L83.6955 52.3808L85.9859 53.5433L80.8453 65.9998Z" fill="white"/>
</g>
<defs>
<filter id="filter0_d_912_2608" x="0" y="0" width="200" height="85" filterUnits="userSpaceOnUse" color-interpolation-filters="sRGB">
<feFlood flood-opacity="0" result="BackgroundImageFix"/>
<feColorMatrix in="SourceAlpha" type="matrix" values="0 0 0 0 0 0 0 0 0 0 0 0 0 0 0 0 0 0 127 0" result="hardAlpha"/>
<feOffset dy="4"/>
<feGaussianBlur stdDeviation="2"/>
<feComposite in2="hardAlpha" operator="out"/>
<feColorMatrix type="matrix" values="0 0 0 0 0 0 0 0 0 0 0 0 0 0 0 0 0 0 0.25 0"/>
<feBlend mode="normal" in2="BackgroundImageFix" result="effect1_dropShadow_912_2608"/>
<feBlend mode="normal" in="SourceGraphic" in2="effect1_dropShadow_912_2608" result="shape"/>
</filter>
</defs>
</svg>
