<svg width="192" height="77" viewBox="0 0 192 77" fill="none" xmlns="http://www.w3.org/2000/svg">
<rect width="192" height="77" rx="10" fill="#8B034F"/>
<path d="M31.3929 48.8583L33.6699 42.6944L35.8318 48.8583H31.3929ZM38.0398 55.0681H40.1327L34.7278 40.2104H32.6579L27 55.0681H29.093L30.7489 50.5142H36.4068L38.0398 55.0681ZM47.9295 51.9172C47.9295 53.1362 46.9406 53.7802 45.2616 53.7802C43.9046 53.7802 43.0076 53.3892 42.5017 52.5152L40.5007 52.8602C41.2827 54.4471 42.8926 55.2291 45.1926 55.2291C48.2975 55.2291 49.9075 53.5042 49.9075 51.6872C49.9075 49.3413 47.7455 48.6973 45.2386 48.1913C44.0426 47.9383 42.6167 47.5013 42.6167 46.4433C42.6167 45.6843 43.3526 44.8103 44.8476 44.8103C46.3656 44.8103 47.2626 45.8453 47.4006 46.2593L49.1485 45.5233C48.3435 43.9824 46.7336 43.3614 45.0316 43.3614C42.4327 43.3614 40.6847 44.6494 40.6847 46.6963C40.6847 49.0193 42.6857 49.4792 44.6176 49.8932C46.3196 50.2382 47.9295 50.6522 47.9295 51.9172ZM54.0704 40.2104L52.1154 41.0154V43.7524H50.3215V45.3393H52.1154V52.5842C52.0924 54.0561 52.0924 55.1141 54.2774 55.1141C54.9904 55.1141 55.7724 54.9761 56.1174 54.9301V53.3662C55.7494 53.4812 55.2434 53.6192 54.8754 53.6192C54.0704 53.6192 54.0704 53.0442 54.0704 51.7102V45.3163H56.1174V43.7294H54.0704V40.2104ZM57.8193 43.7754V55.0681H59.7053V49.8702C59.7053 48.9043 59.6823 47.7543 60.1883 46.9493C60.8093 45.9373 61.7062 45.5693 63.5692 45.5463V43.5914C62.8102 43.6144 60.7863 43.6604 59.7053 45.7993V43.7754H57.8193ZM74.7929 40.2335V42.0734H83.2338L74.7929 53.1592V55.0911H85.6947V53.3202H77.0699L85.4647 42.1194V40.2564L74.7929 40.2335ZM97.5624 43.7754V55.0681H99.4484V48.6743C99.4484 47.8463 99.4484 46.9723 100.276 46.1443C100.874 45.5463 101.587 45.2933 102.438 45.2933C103.473 45.2933 104.531 45.7763 104.853 46.8343C104.968 47.2253 104.968 47.5473 104.968 48.6973V55.0681H106.854V48.3753C106.854 47.4093 106.854 46.7423 106.67 46.0753C106.118 44.2124 104.393 43.4994 102.967 43.4994C102.3 43.4994 100.506 43.6604 99.4484 45.5003V43.7754H97.5624ZM126.979 52.3312C126.588 53.1132 125.829 53.8032 124.38 53.8032C123.115 53.8032 120.976 52.9982 120.976 49.2723C120.976 48.2603 121.16 44.7184 124.265 44.7184C125.829 44.7184 126.565 45.5693 126.887 46.3053L128.658 45.5693C127.554 43.7524 125.599 43.3154 124.173 43.3154C120.585 43.3154 118.837 46.2133 118.837 49.3872C118.837 52.1472 120.332 55.2291 124.334 55.2291C126.634 55.2291 127.922 54.1021 128.635 52.9982L126.979 52.3312ZM88.4086 48.2603H94.3885C94.2275 45.3163 92.5256 44.8103 91.3756 44.8103C89.7656 44.7873 88.6156 45.9833 88.4086 48.2603ZM95.9525 52.9062C95.3085 54.0101 94.0665 55.2751 91.6056 55.2751C88.2706 55.2751 86.3617 53.0212 86.3617 49.2033C86.3617 44.9713 89.1676 43.3384 91.5366 43.3384C93.6065 43.3384 95.5845 44.4884 96.2515 47.3173C96.4585 48.2603 96.4585 49.1343 96.4585 49.5942H88.3626C88.3166 51.4802 89.0986 53.8721 91.7666 53.8261C92.8475 53.8031 93.6295 53.3202 94.1125 52.5382L95.9525 52.9062ZM109.936 48.2603H115.916C115.755 45.3163 114.053 44.8103 112.903 44.8103C111.293 44.7873 110.143 45.9833 109.936 48.2603ZM117.48 52.9062C116.836 54.0101 115.594 55.2751 113.133 55.2751C109.798 55.2751 107.889 53.0212 107.889 49.2033C107.889 44.9713 110.672 43.3384 113.064 43.3384C115.134 43.3384 117.112 44.4884 117.779 47.3173C117.986 48.2603 117.986 49.1343 117.986 49.5942H109.89C109.844 51.4802 110.626 53.8721 113.294 53.8261C114.375 53.8031 115.157 53.3202 115.64 52.5382L117.48 52.9062ZM139.008 55.0681H137.03C137.03 55.0681 136.869 54.2631 136.8 53.4122C136.225 54.0101 135.167 55.2291 133.028 55.2291C130.843 55.2291 129.21 53.9181 129.21 52.0322C129.21 51.4342 129.371 50.8362 129.716 50.3302C130.36 49.3642 131.556 48.6053 134.914 48.3523L136.708 48.2143V47.9383C136.708 46.7653 136.708 44.8103 134.178 44.8103C132.591 44.8103 132.062 45.5693 131.878 46.2823L130.13 45.5463C130.153 45.4773 130.176 45.4313 130.222 45.3623C130.889 44.1204 132.2 43.3614 134.109 43.3614C135.144 43.3614 136.501 43.6144 137.398 44.3274C138.663 45.2703 138.617 47.1563 138.617 47.1563L138.686 52.9522C138.709 52.9062 138.755 54.5851 139.008 55.0681ZM136.409 51.9632C136.685 51.3422 136.708 51.0892 136.708 49.4332C135.972 49.5482 134.983 49.6862 133.764 49.9622C131.671 50.4222 131.303 51.2042 131.303 51.9862C131.303 52.8832 132.016 53.6652 133.419 53.6652C134.753 53.6422 135.88 53.1132 136.409 51.9632ZM73.436 55.0681H71.458C71.458 55.0681 71.297 54.2631 71.228 53.4122C70.653 54.0101 69.5951 55.2291 67.4561 55.2291C65.2712 55.2291 63.6382 53.9181 63.6382 52.0322C63.6382 51.4342 63.7992 50.8362 64.1442 50.3302C64.7882 49.3642 65.9841 48.6053 69.3421 48.3523L71.136 48.2143V47.9383C71.136 46.7653 71.136 44.8103 68.6291 44.8103C67.0421 44.8103 66.5131 45.5693 66.3291 46.2823L64.5812 45.5463C64.6042 45.4773 64.6502 45.4313 64.6732 45.3623C65.3402 44.1204 66.6511 43.3614 68.5601 43.3614C69.5951 43.3614 70.952 43.6144 71.849 44.3274C73.114 45.2703 73.068 47.1563 73.068 47.1563L73.137 52.9522C73.137 52.9062 73.206 54.5851 73.436 55.0681ZM70.86 51.9632C71.136 51.3422 71.182 51.0892 71.182 49.4332C70.446 49.5482 69.4571 49.6862 68.2381 49.9622C66.1451 50.4222 65.7771 51.2042 65.7771 51.9862C65.7771 52.8832 66.4901 53.6652 67.8931 53.6652C69.1811 53.6422 70.308 53.1132 70.86 51.9632Z" fill="white"/>
<path d="M151.336 45.5694C151.037 45.7533 150.738 45.9373 150.462 46.1443C147.058 44.2584 139.744 40.6245 139.123 40.2795C138.456 39.9345 137.26 39.4515 137.421 38.3245C137.628 36.7375 140.365 33.2876 141.538 31.8617C147.84 24.1568 150.669 21.7649 152.532 22.0179C154.533 22.2709 155.637 24.3408 155.775 34.0006C154.671 33.6556 153.429 33.3106 152.118 32.9656C152.003 31.5627 151.75 29.4467 151.658 28.7107C151.543 27.8827 151.382 27.5607 151.06 27.5377C150.692 27.4917 149.772 28.3657 148.921 29.2167C148.53 29.6077 147.472 30.6887 146.276 31.8847C145.287 31.8157 144.62 32.0226 144.252 32.5056C143.953 32.8966 143.907 33.4256 144.068 34.0926C143.424 34.7366 142.872 35.2886 142.527 35.6336C141.216 36.9445 139.813 38.0255 139.744 38.5545C139.698 38.9915 140.342 39.4285 141.308 40.0035C143.631 41.4064 149.312 44.4884 151.336 45.5694ZM160.19 35.9096C157.96 35.1276 152.463 33.0806 146.667 32.3216C144.666 32.0686 143.861 32.7586 144.689 34.6676C145.494 36.5535 147.587 39.6815 149.795 42.0504C152.003 44.4194 154.372 45.0404 155.131 41.4064C155.154 41.2684 155.177 41.1534 155.2 41.0155C155.384 40.0725 155.522 39.1755 155.591 38.3935C154.625 37.9565 153.521 37.4735 152.417 37.0135C152.486 37.8415 152.578 39.2905 152.624 40.3945C152.624 40.5325 152.647 40.6705 152.647 40.8085C152.716 42.6024 152.095 42.6024 151.083 41.8664C149.887 41.0155 146.253 36.2086 145.839 34.0926C145.816 33.9546 145.885 33.9546 145.954 33.9776C145.977 33.9776 146 34.0006 146.046 34.0236C146.874 34.3456 149.611 35.4266 152.371 36.5995C153.475 37.0595 154.602 37.5425 155.591 38.0025C156.58 38.4395 157.454 38.8535 158.121 39.2215C159.317 39.8655 159.777 40.3025 159.294 40.8085C156.787 43.3384 148.07 46.9493 145.057 51.4112C145.057 51.4112 145.034 51.4342 145.034 51.4572C144.988 51.5032 144.965 51.5492 144.942 51.6182C144.942 51.6412 144.919 51.6642 144.919 51.6642C144.781 51.9402 144.551 52.4232 144.482 52.9982C144.344 53.9642 144.85 54.8611 146.253 55.2521C146.598 55.3671 147.012 55.4361 147.449 55.4821C147.518 55.4821 147.61 55.5051 147.702 55.5051C150.393 55.6431 157.385 54.1022 159.501 53.1592C161.708 52.1932 161.041 51.2042 160.397 50.7212C159.914 50.3302 157.477 48.9733 156.281 48.3293C155.959 48.5363 155.706 48.6973 155.407 48.9043C157.431 50.1463 158.213 50.7442 158.696 51.1122C158.88 51.2502 158.788 51.4112 158.512 51.4342C158.443 51.4342 158.374 51.4342 158.305 51.4572C156.396 51.5952 152.762 51.8482 151.06 51.9402C150.807 51.9632 150.531 51.9632 150.37 51.9632C150.784 51.5722 151.267 51.2042 151.497 51.0432C155.154 48.4903 161.225 44.8794 163.019 43.3154C164.33 42.1194 167.918 38.6235 160.19 35.9096Z" fill="#F9B000"/>
</svg>
