<svg width="192" height="77" viewBox="0 0 192 77" fill="none" xmlns="http://www.w3.org/2000/svg">
<rect width="192" height="77" rx="10" fill="#F40505"/>
<path fill-rule="evenodd" clip-rule="evenodd" d="M80.1184 11C87.104 11 93.1014 13.8093 95.8203 15.8892C96.3001 16.2539 96.58 16.214 96.9455 15.9689C98.7562 14.7609 104.217 11.0456 111.734 11.0456C120.81 11.0456 130 15.6213 130 25.5877C130 31.6906 125.83 38.0557 118.673 42.3978C116.868 43.5033 114.749 44.4435 112.476 45.2584C111.179 45.7256 110.608 45.19 111.968 44.1871C115.321 41.7026 123.911 35.1609 123.911 26.9781C123.911 21.4166 118.742 15.8607 109.831 15.8607C103.029 15.8607 98.0022 19.6615 97.0598 20.3054C96.5743 20.6359 96.2601 20.5789 95.8488 20.2199C93.387 18.0374 88.3777 15.6897 82.5688 15.6897C75.4804 15.6897 69.0945 19.576 69.0945 26.4881C69.0945 39.0871 91.028 44.2612 96.3515 44.2612C97.6766 44.2612 109.42 40.1755 109.42 30.3401C109.42 26.8642 107.255 24.5734 104.394 24.5734C100.658 24.5734 98.5049 27.7075 97.0483 29.4512C96.717 29.8501 96.203 30.0267 95.8888 29.4512C94.598 27.1092 92.0676 24.5051 88.6176 24.5051C85.5504 24.5051 83.7226 26.7217 83.7226 29.1549C83.7226 34.8931 91.7306 38.4603 95.4662 39.7424C96.1916 39.9874 96.1801 40.7624 95.1691 40.6598C89.8514 40.1584 76.6399 36.1524 76.6399 27.5992C76.6399 24.072 79.69 20.1458 85.7731 20.1458C89.8685 20.1458 93.7469 22.3853 96.0316 25.1262C96.2544 25.394 96.6257 25.3541 96.8256 25.1547C97.0255 24.9609 101.789 20.3111 107.478 20.3111C111.545 20.3111 115.949 23.0805 115.949 28.9213C115.949 34.9501 110.654 40.996 106.193 43.7654C101.601 46.5975 97.2311 47.8739 96.1516 47.7884C78.5534 46.3525 63 36.2037 63 24.2372C63 18.3452 67.5009 11 80.1184 11Z" fill="white"/>
<path fill-rule="evenodd" clip-rule="evenodd" d="M123.357 65.6807C121.626 65.6807 120.438 64.9513 119.421 63.521L121.312 61.6805C121.803 62.3244 122.449 62.9512 123.305 62.9512C123.899 62.9512 124.459 62.5067 124.459 61.8628C124.459 61.2018 124.025 60.8599 123.46 60.6662L122.254 60.2559C120.644 59.7032 119.524 58.5236 119.524 56.7172C119.524 54.5519 121.095 52.7284 123.248 52.7284C124.962 52.7284 126.064 53.5718 127.064 54.928L125.156 56.8426C124.716 56.1987 124.105 55.5035 123.283 55.5035C122.654 55.5035 122.18 55.9708 122.18 56.6147C122.18 57.2757 122.74 57.5606 123.265 57.76L124.522 58.2045C126.099 58.7572 127.075 60.0109 127.075 61.709V61.766C127.081 63.8743 125.47 65.6807 123.357 65.6807ZM115.457 57.9196L113.778 57.0249L115.772 52.0161L118.085 53.2299L115.457 57.9196ZM106.324 65.5212V52.8994H109.003V62.8714H113.081V65.5155H106.324V65.5212ZM96.7111 65.5212V52.8994H99.3842V62.8714H103.462V65.5155H96.7111V65.5212ZM94.1807 64.769L88.0405 52.3979L81.8489 64.769L84.2478 65.9656L85.3159 63.5495H90.7422L91.8103 65.9257L94.1807 64.769ZM89.5656 61.0993H86.4355L88.0119 57.6119L89.5656 61.0993ZM76.8453 65.9998L73.9437 58.9225L71.042 65.9998L65.9014 53.5604L68.3518 52.3808L71.1848 59.9083L73.9665 52.3466L76.8681 59.9083L79.6955 52.3808L81.9859 53.5433L76.8453 65.9998Z" fill="white"/>
</svg>
