<svg width="192" height="77" viewBox="0 0 192 77" fill="none" xmlns="http://www.w3.org/2000/svg">
<rect width="192" height="77" rx="10" fill="#F36633"/>
<path d="M73.8124 36.0069H63.8497V37.8636C63.8497 40.0504 65.5932 41.8246 67.7933 41.8659H70.2424V46.6521C70.2424 47.271 69.7443 47.8074 69.0801 47.8074H53.9701C53.0154 47.8074 52.2267 47.0235 52.2267 46.0745V36.0069V31.9221C52.2267 30.9731 53.0154 30.1891 53.9701 30.1891H70.2009V24H53.5135C52.3512 24 51.1889 24.2888 50.1511 24.784C48.6982 25.4854 47.5359 26.6407 46.7887 28.1261C46.2491 29.1576 46 30.3129 46 31.4682V46.5284C46 47.6837 46.2491 48.839 46.7887 49.8705C47.4944 51.3146 48.6567 52.4699 50.1511 53.1713C51.1889 53.7077 52.3512 53.9553 53.5135 53.9553H66.0913C68.416 53.9553 70.3255 52.0573 70.3255 49.7467V48.055C70.3255 47.89 70.45 47.7662 70.5745 47.7662H70.616C73.9784 47.6837 76.137 46.0332 76.137 43.2275V36.0069H73.8124Z" fill="white"/>
<path d="M80.7041 35.6354C80.7041 39.4726 83.942 41.8658 88.3006 41.8658H103.037C103.909 41.7833 104.697 42.4847 104.781 43.3512C104.781 43.4337 104.781 43.5162 104.781 43.5987V46.0744C104.864 46.9408 104.158 47.7248 103.286 47.8073C103.203 47.8073 103.12 47.8073 103.037 47.8073H82.2815V53.9964H103.162C107.271 54.1202 110.717 50.8606 110.8 46.7758C110.8 46.652 110.8 46.5282 110.8 46.4045V43.6812C110.924 39.5964 107.645 36.1718 103.535 36.0893C103.411 36.0893 103.286 36.0893 103.162 36.0893H88.4667C87.5949 36.1718 86.8062 35.4704 86.7232 34.6039C86.7232 34.5214 86.7232 34.4388 86.7232 34.3563V31.3855C86.6817 30.8079 87.0968 30.2715 87.678 30.2302C87.761 30.2302 87.8025 30.2302 87.8855 30.2302H108.267V24.0411H90.7913C88.4667 24.0411 86.5572 25.8979 86.5572 28.2085V29.9414C86.5572 30.1065 86.4326 30.2302 86.3081 30.2302H86.2666C83.3608 30.2715 80.7041 31.9632 80.7041 35.6354Z" fill="white"/>
<path d="M115.863 45.208V53.9553H122.09V40.2155C122.09 39.5966 122.588 39.514 122.92 39.8441L137.532 53.9553H146L130.517 38.9776L146 24H137.532L122.92 38.1112C122.588 38.4413 122.09 38.3587 122.09 37.7398V24H115.905V32.7885C115.905 35.9243 117.98 37.8636 121.675 38.8539C121.799 38.8951 121.799 39.0602 121.675 39.1014C117.939 40.1329 115.863 42.0309 115.863 45.208Z" fill="white"/>
</svg>
