<svg width="192" height="77" viewBox="0 0 192 77" fill="none" xmlns="http://www.w3.org/2000/svg">
<rect width="192" height="77" rx="10" fill="#6D1F37"/>
<g clip-path="url(#clip0_912_2650)">
<path d="M97.338 19.4194H105.272C102.575 20.6776 100.716 23.2988 100.978 26.2608C101.344 30.5596 105.272 32.2372 105.272 37.3224C105.272 40.7038 103.072 43.692 100.637 44.9764L93.4365 42.9843C95.9241 41.8309 97.5737 39.3932 97.4689 36.772C97.3118 32.6828 93.4365 30.7955 93.4365 26.156C93.4365 23.0105 95.1909 20.4941 97.338 19.4194Z" fill="white"/>
<path d="M114.279 40.8087V24.8716H109.461V19.4194H125.513V24.8716H120.616V40.8087H114.279Z" fill="white"/>
<path d="M44 30.1402C44.0262 36.3001 49.0274 41.3067 55.1808 41.2805C58.1135 41.2805 60.9152 40.1271 62.9838 38.0564L58.6633 33.7313C56.6733 35.671 53.505 35.6448 51.5411 33.6789C49.6035 31.6868 49.6297 28.5151 51.5935 26.5492C53.5574 24.6094 56.6995 24.6094 58.6372 26.5492L62.9576 22.2241C58.611 17.8729 51.5411 17.9253 47.2207 22.3028C45.1521 24.3735 44 27.2045 44 30.1402Z" fill="white"/>
<path d="M77.1235 35.173C74.348 35.173 72.0961 32.9187 72.0961 30.1402C72.0961 27.3617 74.348 25.1075 77.1235 25.1075C79.8991 25.1075 82.151 27.3617 82.151 30.1402C82.151 32.9187 79.8991 35.173 77.1235 35.173ZM77.333 19C71.1797 19 66.2046 24.0066 66.2046 30.1664C66.2046 36.3263 71.2058 41.3067 77.3592 41.3067C83.5126 41.3067 88.4876 36.3001 88.4876 30.1402C88.4876 24.0066 83.4864 19 77.333 19Z" fill="white"/>
<path d="M136.274 32.4207L138.212 24.2163H138.552L140.49 32.4207H136.274ZM142.244 19.4194H134.52L127.764 40.8087H134.284L135.148 37.1389H141.59L142.454 40.8087H149L142.244 19.4194Z" fill="white"/>
<path d="M90.0322 50.2975H96.5522V52.0013H92.0222V53.7051H95.7666V55.4089H92.0222V58.8427H90.0322V50.2975Z" fill="white"/>
<path d="M99.2754 50.2975H105.769V52.0013H101.265V53.7051H104.984V55.4089H101.265V58.8427H99.2754V50.2975Z" fill="white"/>
<path d="M75.1595 55.9594C74.4002 57.1389 72.8291 57.5059 71.6508 56.7457C70.4725 55.9856 70.1059 54.4129 70.8653 53.2333C71.6246 52.0537 73.1957 51.6868 74.374 52.4469C74.5835 52.578 74.7929 52.7615 74.9762 52.9712L76.2855 51.6606C74.662 49.8257 71.8603 49.6684 70.0535 51.2936C68.2468 52.9187 68.0635 55.6973 69.687 57.5321C71.3104 59.367 74.1121 59.5243 75.9189 57.8991C76.1284 57.7156 76.3116 57.5059 76.4688 57.2962L75.1595 55.9594Z" fill="white"/>
<path d="M110.509 57.1127V55.4089H114.227V53.7051H110.509V52.0013H114.908V50.2975H108.519V58.8427H115.065V57.1127H110.509Z" fill="white"/>
<path d="M124.439 52.0013V50.2975H118.05V58.8427H124.596V57.1127H120.04V55.4089H123.758V53.7051H120.04V52.0013H124.439Z" fill="white"/>
<path d="M82.8839 57.1127C81.4699 57.1127 80.344 55.9856 80.344 54.5701C80.344 53.1546 81.4699 52.0275 82.8839 52.0275C84.2716 52.0275 85.4238 53.1546 85.4238 54.5701C85.4238 55.9594 84.2716 57.1127 82.8839 57.1127ZM82.8839 50.1664C80.4487 50.1664 78.4849 52.1324 78.4849 54.5701C78.4849 57.0079 80.4487 58.9738 82.8839 58.9738C85.319 58.9738 87.2829 57.0079 87.2829 54.5701C87.2829 52.1324 85.319 50.1664 82.8839 50.1664Z" fill="white"/>
</g>
<defs>
<clipPath id="clip0_912_2650">
<rect width="105" height="40" fill="white" transform="translate(44 19)"/>
</clipPath>
</defs>
</svg>
