<svg width="192" height="77" viewBox="0 0 192 77" fill="none" xmlns="http://www.w3.org/2000/svg">
<rect width="192" height="77" rx="10" fill="#E3012B"/>
<g clip-path="url(#clip0_908_213)">
<path fill-rule="evenodd" clip-rule="evenodd" d="M139.714 33.0909C139.714 33.2727 139.623 33.3636 139.441 33.5455C139.35 33.6364 139.168 33.7273 138.986 33.7273H136.8C136.709 33.7273 136.618 33.7273 136.527 33.6364C136.436 33.6364 136.345 33.5455 136.254 33.4545C136.162 33.3636 136.162 33.2727 136.071 33.1818C136.071 33.0909 135.98 33 136.071 32.9091C136.071 32.8182 136.071 32.8182 136.071 32.8182C136.162 30.5455 134.705 28.8182 131.427 28.8182C125.963 28.8182 121.955 33.2727 121.409 39.0909C120.863 45.0909 125.143 48.6364 131.062 48.6364C133.339 48.6364 135.616 48.2727 137.802 47.6364C137.893 47.6364 138.075 47.6364 138.166 47.6364C138.257 47.6364 138.439 47.7273 138.53 47.8182C138.621 47.9091 138.713 48 138.713 48.0909C138.713 48.1818 138.804 48.3636 138.713 48.4545L137.984 52.0909C137.984 52.2727 137.893 52.3636 137.802 52.4545C137.711 52.5455 137.529 52.6364 137.438 52.7273C136.254 53.0909 132.884 54 127.693 54C115.398 54 110.389 47 111.118 39.8182C111.755 33.4545 116.036 24 132.793 24C135.434 24 138.075 24.3636 140.625 25.0909C140.807 25.1818 140.989 25.2727 141.171 25.4545C141.262 25.6364 141.354 25.9091 141.262 26.0909L139.714 33.0909ZM70.7732 26.9091C70.7732 27.0909 70.7732 27.2727 70.8643 27.4545C70.9554 27.6364 71.1375 27.7273 71.3196 27.8182C72.0482 28.0909 72.2304 28.7273 71.5929 29.2727L61.3018 37.8182L63.0321 29.8182C63.3054 28.5455 64.3071 28.0909 64.9446 27.9091H65.0357C65.1268 27.9091 65.3089 27.8182 65.4 27.7273C65.4911 27.6364 65.5821 27.4545 65.5821 27.3636L65.9464 25.3636C65.9464 25.2727 65.9464 25.1818 65.9464 25C65.9464 24.9091 65.9464 24.8182 65.8554 24.7273C65.7643 24.6364 65.6732 24.5455 65.5821 24.5455C65.4911 24.4545 65.4 24.4545 65.3089 24.4545H51.9214C51.7393 24.4545 51.5571 24.5455 51.375 24.6364C51.2839 24.7273 51.1929 24.9091 51.1929 25.0909L50.7375 27C50.7375 27.1818 50.7375 27.3636 50.8286 27.5455C50.9196 27.7273 51.1018 27.8182 51.2839 27.9091H51.375C52.2857 28.2727 53.1964 29 52.8321 30.9091L49.6446 45.3636C48.825 49.2727 47.4589 50.0909 46.1839 50.2727C46.0018 50.2727 45.8196 50.3636 45.7286 50.4545C45.6375 50.5455 45.5464 50.7273 45.4554 50.9091L45 52.7273C45 52.8182 45 52.9091 45 53.0909C45 53.1818 45.0911 53.2727 45.1821 53.3636C45.2732 53.4545 45.3643 53.5455 45.4554 53.5455C45.5464 53.5455 45.6375 53.6364 45.8196 53.6364H59.8446C60.0268 53.6364 60.2089 53.5455 60.3 53.4545C60.3911 53.3636 60.4821 53.1818 60.5732 53.0909L61.0286 50.9091C61.0286 50.7273 61.0286 50.5455 60.9375 50.3636C60.8464 50.1818 60.7554 50.0909 60.5732 50H60.4821C59.7536 49.7273 58.8429 49.0909 59.025 48L60.6643 40.6364C66.2196 50.7273 68.0411 53.6364 74.7804 53.6364H80.7911C80.9732 53.6364 81.1554 53.5455 81.2464 53.4545C81.3375 53.3636 81.4286 53.1818 81.5196 53.0909L81.975 51.1818C81.975 51.0909 81.975 50.9091 81.975 50.8182C81.975 50.7273 81.8839 50.6364 81.7929 50.5455C81.6107 50.4545 81.5196 50.3636 81.4286 50.3636C81.3375 50.2727 81.2464 50.2727 81.0643 50.2727C79.5161 50.2727 78.7875 49.9091 77.3304 48L69.5893 37.5455L79.6982 29.2727C81.0643 28.1818 82.7036 27.9091 83.6143 27.8182H83.7054C83.8875 27.8182 83.9786 27.7273 84.1607 27.6364C84.2518 27.5455 84.3429 27.3636 84.4339 27.2727L84.8893 25.4545C84.8893 25.3636 84.8893 25.2727 84.8893 25.0909C84.8893 25 84.7982 24.9091 84.7071 24.8182C84.6161 24.7273 84.525 24.6364 84.4339 24.6364C84.3429 24.5455 84.2518 24.5455 84.0696 24.5455H71.9571C71.775 24.5455 71.5929 24.6364 71.5018 24.7273C71.4107 24.8182 71.2286 24.9091 71.1375 25.0909L70.7732 26.9091ZM110.754 33.0909C110.936 33.0909 111.118 33 111.209 32.9091C111.391 32.8182 111.482 32.6364 111.482 32.5455L113.121 25.3636C113.121 25.2727 113.121 25.1818 113.121 25C113.121 24.9091 113.03 24.8182 112.939 24.7273C112.848 24.6364 112.757 24.5455 112.666 24.5455C112.575 24.4545 112.484 24.4545 112.393 24.4545H87.6214C87.4393 24.4545 87.2571 24.5455 87.075 24.6364C86.8929 24.7273 86.8018 24.9091 86.8018 25.0909L86.3464 27C86.3464 27.1818 86.3464 27.3636 86.4375 27.5455C86.5286 27.7273 86.7107 27.8182 86.8929 27.9091H86.9839C87.8036 28.1818 88.8964 29 88.4411 30.9091L83.6143 52.7273C83.6143 52.8182 83.6143 52.9091 83.6143 53.0909C83.6143 53.1818 83.7054 53.2727 83.7964 53.3636C83.8875 53.4545 83.9786 53.5455 84.0696 53.5455C84.1607 53.6364 84.2518 53.6364 84.3429 53.6364H95.4536C95.6357 53.6364 95.8179 53.5455 95.9089 53.4545C96 53.3636 96.0911 53.1818 96.1821 53.0909L96.6375 50.9091C96.6375 50.7273 96.6375 50.5455 96.5464 50.4545C96.4554 50.3636 96.3643 50.1818 96.1821 50.0909L96.0911 50C95.3625 49.6364 94.3607 48.9091 94.725 47.3636C94.725 47.1818 95.8179 42.4545 95.8179 42.4545H105.289C105.471 42.4545 105.654 42.3636 105.745 42.2727C105.836 42.1818 105.927 42 106.018 41.8182L106.929 37.8182C106.929 37.7273 106.929 37.6364 106.929 37.4545C106.929 37.3636 106.838 37.2727 106.746 37.1818C106.655 37.0909 106.564 37 106.473 37C106.382 36.9091 106.291 36.9091 106.2 36.9091H97.0929L98.7321 29.2727H105.107C107.202 29.2727 107.839 30.3636 107.657 32.1818C107.657 32.1818 107.657 32.1818 107.657 32.2727C107.657 32.3636 107.657 32.4545 107.657 32.5455C107.657 32.6364 107.748 32.7273 107.839 32.8182C107.93 32.9091 108.021 33 108.113 33C108.204 33 108.295 33.0909 108.386 33.0909H110.754Z" fill="white"/>
<path fill-rule="evenodd" clip-rule="evenodd" d="M146.271 30C145.816 30.4545 145.27 30.6363 144.632 30.6363C143.995 30.6363 143.448 30.3636 142.993 30C142.537 29.5454 142.264 29 142.264 28.3636C142.264 27.7272 142.537 27.1818 142.993 26.7272C143.448 26.2727 143.995 26.0909 144.632 26.0909C145.27 26.0909 145.816 26.3636 146.271 26.7272C146.727 27.1818 147 27.7272 147 28.3636C147 28.9091 146.727 29.5454 146.271 30ZM146.545 27.5454C146.453 27.2727 146.271 27.0909 146.089 26.9091C145.907 26.7272 145.634 26.5454 145.452 26.4545C145.178 26.3636 144.905 26.2727 144.632 26.2727C144.359 26.2727 144.086 26.3636 143.812 26.4545C143.539 26.5454 143.357 26.7272 143.175 26.9091C142.993 27.0909 142.811 27.3636 142.72 27.5454C142.628 27.8182 142.537 28.0909 142.537 28.3636C142.537 28.6363 142.537 28.9091 142.72 29.1818C142.811 29.4545 142.993 29.6363 143.175 29.8182C143.357 30 143.63 30.1818 143.812 30.2727C144.086 30.3636 144.359 30.4545 144.632 30.4545C144.905 30.4545 145.178 30.3636 145.452 30.2727C145.725 30.1818 145.907 30 146.089 29.8182C146.271 29.6363 146.453 29.3636 146.545 29.1818C146.636 28.9091 146.727 28.6363 146.727 28.3636C146.636 28.0909 146.636 27.8182 146.545 27.5454ZM145.178 29.1818L145.087 28.8182C144.996 28.5454 144.905 28.4545 144.632 28.4545H144.177V29.3636H143.812V27.0909H144.814C145.361 27.0909 145.634 27.3636 145.634 27.7272C145.634 27.9091 145.543 28 145.452 28.0909C145.361 28.1818 145.178 28.2727 145.087 28.2727C145.178 28.2727 145.27 28.3636 145.361 28.3636C145.452 28.4545 145.452 28.5454 145.543 28.6363L145.634 29.0909C145.634 29.1818 145.725 29.2727 145.816 29.3636H145.361C145.178 29.3636 145.178 29.2727 145.178 29.1818ZM144.086 27.4545V28.2727H144.632C144.905 28.2727 145.087 28.0909 145.087 27.9091C145.087 27.7272 144.905 27.5454 144.632 27.5454H144.086V27.4545Z" fill="white"/>
</g>
<defs>
<clipPath id="clip0_908_213">
<rect width="102" height="30" fill="white" transform="translate(45 24)"/>
</clipPath>
</defs>
</svg>
