<svg width="192" height="77" viewBox="0 0 192 77" fill="none" xmlns="http://www.w3.org/2000/svg">
<rect width="192" height="77" rx="10" fill="#DB0011"/>
<g clip-path="url(#clip0_912_1827)">
<path d="M100.616 39.0376L84.4712 23V55.0376L100.616 39.0376Z" fill="white"/>
<path d="M68.3265 39.0376L84.4708 23H52.1821L68.3265 39.0376Z" fill="white"/>
<path d="M36 39.0376L52.1823 55.0376V23L36 39.0376Z" fill="white"/>
<path d="M68.3265 39.0376L52.1821 55.0376H84.4708L68.3265 39.0376Z" fill="white"/>
<path d="M114.784 39.9788H108.934V45.7012H106.009V32.2988H108.934V37.7953H114.784V32.2988H117.709V45.7012H114.784V39.9788Z" fill="white"/>
<path d="M124.775 45.9647C121.85 45.9647 119.457 44.7976 119.419 41.5976H122.344C122.382 43.0282 123.218 43.8941 124.813 43.8941C125.991 43.8941 127.358 43.2918 127.358 41.9741C127.358 40.92 126.446 40.6188 124.927 40.1671L123.939 39.9035C121.812 39.3012 119.685 38.4729 119.685 36.0635C119.685 33.0894 122.496 32.0729 125.041 32.0729C127.662 32.0729 129.941 32.9765 129.979 35.9506H127.054C126.94 34.7459 126.219 34.0306 124.851 34.0306C123.749 34.0306 122.686 34.5953 122.686 35.8C122.686 36.7788 123.597 37.08 125.497 37.6823L126.636 38.0212C128.954 38.7365 130.435 39.5271 130.435 41.7859C130.397 44.7976 127.434 45.9647 124.775 45.9647Z" fill="white"/>
<path d="M132.068 32.3365H136.779C137.652 32.2988 138.564 32.3365 139.438 32.4871C141.071 32.8635 142.325 33.9176 142.325 35.7247C142.325 37.4565 141.223 38.3224 139.628 38.7365C141.451 39.0753 142.819 39.9788 142.819 41.9741C142.819 45.0235 139.78 45.7012 137.424 45.7012H132.106L132.068 32.3365ZM136.779 37.9082C138.07 37.9082 139.4 37.6447 139.4 36.1012C139.4 34.7082 138.184 34.3318 136.969 34.3318H134.917V37.9082H136.779ZM137.045 43.7059C138.412 43.7059 139.742 43.4047 139.742 41.7482C139.742 40.0918 138.602 39.7906 137.197 39.7906H134.879V43.7059H137.045Z" fill="white"/>
<path d="M150.416 45.9647C146.048 45.9647 144.11 43.2165 144.11 39.1129C144.11 35.0094 146.276 32.0353 150.568 32.0353C153.265 32.0353 155.886 33.24 155.962 36.2518H152.923C152.771 34.8965 151.86 34.2188 150.568 34.2188C147.909 34.2188 147.111 37.0424 147.111 39.1882C147.111 41.3341 147.909 43.8188 150.454 43.8188C151.784 43.8188 152.771 43.1035 152.961 41.7482H156C155.696 44.8353 153.227 45.9647 150.416 45.9647Z" fill="white"/>
</g>
<defs>
<clipPath id="clip0_912_1827">
<rect width="120" height="32" fill="white" transform="translate(36 23)"/>
</clipPath>
</defs>
</svg>
