<svg width="192" height="77" viewBox="0 0 192 77" fill="none" xmlns="http://www.w3.org/2000/svg">
<rect width="192" height="77" rx="10" fill="#17E88F"/>
<g clip-path="url(#clip0_908_507)">
<path d="M92.021 39.0912C95.1473 38.0908 95.6475 35.4647 95.6475 33.3389C95.6475 30.0876 93.3966 27.3365 86.5188 27.3365H73.8887V51.7213H86.5188C93.3966 51.7213 95.8976 48.2199 95.8976 44.7185C95.8976 40.3417 92.021 39.0912 92.021 39.0912ZM79.8911 32.5886H88.3945C89.52 32.7136 90.1452 33.589 90.1452 34.4643C90.1452 35.4647 89.3949 36.3401 88.3945 36.4651H79.8911V32.5886ZM88.0194 45.969H79.8911V41.8423H88.2695C89.2699 41.9674 90.1452 42.8427 90.1452 43.8431C90.1452 44.9686 89.1448 45.969 88.0194 45.969Z" fill="white"/>
<path d="M124.299 27.2551H145.682V32.6323H130.301V36.5088H144.182V41.886H130.301V46.1377H145.808V51.765H124.299" fill="white"/>
<path d="M111.838 27.2851H98.8325V51.67H104.835V41.791H111.338C113.213 41.791 114.714 43.4166 114.714 45.2924V51.67H120.591V43.7918C120.591 40.1653 117.09 39.0399 117.09 39.0399C117.09 39.0399 120.591 38.0395 120.591 33.6627C120.591 28.4106 116.089 27.2851 111.838 27.2851ZM115.089 34.9132C114.964 35.6635 114.214 36.5389 113.213 36.5389H104.835V32.6623H113.213C114.214 32.6623 114.964 33.4126 115.089 34.413" fill="white"/>
<path d="M70.0619 45.8164C69.9369 45.8164 61.9337 45.9415 59.1825 45.6914C54.6807 45.3162 53.1801 41.9398 53.1801 39.1887C53.1801 35.8124 55.431 33.3113 59.0575 32.8111C60.8082 32.561 70.0619 32.6861 70.0619 32.6861H70.312V27.1839H70.0619H59.5577C58.4322 27.3089 56.4314 27.434 54.4306 28.1843C52.5549 29.0596 50.9292 30.4352 49.6787 32.0608C48.053 34.1867 47.3027 36.6877 47.3027 39.3138C47.3027 40.1891 47.4278 40.9394 47.5528 41.8148C48.3031 45.5663 50.6791 48.5675 54.1805 50.1932C55.306 50.6934 57.1817 51.3186 60.8082 51.5687H62.809H70.0619H70.312V45.6914" fill="white"/>
</g>
<defs>
<clipPath id="clip0_908_507">
<rect width="98.94" height="25.0101" fill="white" transform="translate(47 27)"/>
</clipPath>
</defs>
</svg>
