<svg width="192" height="77" viewBox="0 0 192 77" fill="none" xmlns="http://www.w3.org/2000/svg">
<rect width="192" height="77" rx="10" fill="#0071DC"/>
<path d="M105.606 39.8735C105.606 37.1284 104.373 34.6827 100.264 34.6827C98.1576 34.6827 96.4624 35.2817 95.5891 35.7808L96.2569 37.9769C97.0788 37.4777 98.4144 37.0286 99.6987 37.0286C101.805 37.0286 102.113 38.1765 102.113 38.9252V39.1248C97.5925 39.1248 94.7158 40.6221 94.7158 43.7665C94.7158 45.6631 96.1542 47.4599 98.7227 47.4599C100.264 47.4599 101.599 46.861 102.37 45.8628H102.421C102.421 45.8628 102.935 47.959 105.812 47.1605C105.658 46.2621 105.606 45.3637 105.606 44.2157V39.8735ZM102.216 42.7683C102.216 42.9679 102.216 43.2175 102.113 43.4171C101.856 44.2656 100.932 44.9644 99.8014 44.9644C98.8768 44.9644 98.1062 44.4653 98.1062 43.3672C98.1062 41.7202 100.007 41.2211 102.164 41.271" fill="white"/>
<path d="M36 30.9394C36 30.9394 38.9794 42.7184 39.4418 44.6649C40.0068 46.9109 40.9829 47.7094 43.8596 47.1604L45.7089 39.8235C46.1712 38.0267 46.4794 36.7291 46.7877 34.8824H46.839C47.0445 36.7291 47.3527 38.0267 47.7123 39.8734C47.7123 39.8734 48.4829 43.2175 48.8425 44.9643C49.202 46.7112 50.2808 47.8093 53.1061 47.2103L57.524 30.9893H53.9794L52.4383 38.0267C52.0274 40.0731 51.6678 41.6702 51.4109 43.5169C51.1541 41.6702 50.8459 40.123 50.4349 38.1266L48.8425 30.9394H45.1438L43.4486 37.9269C42.9863 40.0731 42.524 41.7701 42.2671 43.5668H42.2157C41.9075 41.8699 41.5479 39.7237 41.137 37.6774C41.137 37.6774 40.161 32.6863 39.8014 30.9893" fill="white"/>
<path d="M67.5408 39.8735C67.5408 37.1284 66.3079 34.6827 62.1983 34.6827C60.0922 34.6827 58.397 35.2817 57.5237 35.7808L58.1915 37.9769C59.0134 37.4777 60.349 37.0286 61.6333 37.0286C63.7394 37.0286 64.0476 38.1765 64.0476 38.9252V39.1248C59.5271 39.1248 56.6504 40.6221 56.6504 43.7665C56.6504 45.6631 58.1401 47.4599 60.6572 47.4599C62.2497 47.4599 63.5339 46.861 64.3045 45.8628H64.4072C64.4072 45.8628 64.9209 47.959 67.7976 47.1605C67.6435 46.2621 67.5922 45.3637 67.5922 44.2157V39.8735H67.5408ZM64.1504 42.7683C64.1504 42.9679 64.1504 43.2175 64.0476 43.4171C63.7908 44.2656 62.8661 44.9644 61.736 44.9644C60.8113 44.9644 60.0408 44.4653 60.0408 43.3672C60.0408 41.7202 61.9415 41.2211 64.099 41.271" fill="white"/>
<path d="M69.3906 30.9394V47.1604H72.781V43.7166V30.9394H69.3906Z" fill="white"/>
<path d="M116.034 30.9394V42.918C116.034 44.565 116.342 45.713 117.062 46.4117C117.678 47.0107 118.654 47.41 119.836 47.41C120.863 47.41 121.839 47.2103 122.301 47.0606L122.25 44.4652C121.89 44.565 121.479 44.615 120.966 44.615C119.784 44.615 119.425 43.9162 119.425 42.4189V37.8271H122.404V34.7326H119.425V30.8895" fill="white"/>
<path d="M107.25 34.9822V47.1604H110.743V40.9216C110.743 40.5722 110.743 40.2727 110.795 40.0232C111.051 38.7255 112.079 37.877 113.568 37.877C113.979 37.877 114.288 37.9269 114.596 37.9768V34.7825C114.339 34.7326 114.134 34.7326 113.825 34.7326C112.49 34.7326 111 35.5312 110.384 37.328H110.281V34.9822" fill="white"/>
<path d="M74.7842 34.9822V47.1604H78.226V39.9733C78.226 39.6239 78.2773 39.2745 78.3801 38.9751C78.6369 38.2264 79.3561 37.4278 80.4349 37.4278C81.8218 37.4278 82.4383 38.5758 82.4383 40.1729V47.1105H85.8287V39.9234C85.8287 39.6239 85.8801 39.2246 85.9828 38.9251C86.2396 38.1266 87.0102 37.4278 88.0376 37.4278C89.4246 37.4278 90.0924 38.5259 90.0924 40.4724V47.1604H93.4828V39.9733C93.4828 36.1801 91.5307 34.6827 89.2705 34.6827C88.2944 34.6827 87.5239 34.9323 86.8047 35.3316C86.1883 35.6809 85.6746 36.1801 85.2123 36.8289H85.1609C84.5958 35.5312 83.3629 34.6328 81.7191 34.6328C79.6129 34.6328 78.6369 35.6809 78.0718 36.5793H78.0205V34.9822" fill="white"/>
<path d="M140.691 34.4332C141.359 34.4332 141.924 34.0838 141.976 33.6346L142.643 26.2977C142.643 25.549 141.77 25 140.691 25C139.613 25 138.739 25.5989 138.739 26.2977L139.407 33.6346C139.458 34.0838 140.024 34.4332 140.691 34.4332Z" fill="#FFC220"/>
<path d="M136.582 36.6792C136.89 36.1301 136.89 35.4813 136.53 35.1818L130.366 30.9893C129.698 30.6399 128.774 31.0392 128.209 31.9875C127.644 32.8859 127.746 33.9341 128.414 34.2834L135.298 37.3779C135.709 37.5776 136.274 37.2781 136.582 36.6792Z" fill="#FFC220"/>
<path d="M144.75 36.6792C145.109 37.2282 145.674 37.5276 146.085 37.3779L152.969 34.2834C153.585 33.9341 153.688 32.8859 153.174 31.9875C152.609 31.0891 151.633 30.6399 151.017 30.9893L144.801 35.1818C144.441 35.4813 144.441 36.1301 144.75 36.6792Z" fill="#FFC220"/>
<path d="M140.691 43.5668C141.359 43.5668 141.924 43.9162 141.976 44.3654L142.643 51.7023C142.643 52.451 141.77 53 140.691 53C139.613 53 138.739 52.4011 138.739 51.7023L139.407 44.3654C139.458 43.8663 140.024 43.5668 140.691 43.5668Z" fill="#FFC220"/>
<path d="M144.75 41.2709C145.109 40.7219 145.674 40.4224 146.085 40.5722L152.969 43.6666C153.585 44.016 153.688 45.0641 153.174 45.9625C152.609 46.8609 151.633 47.3101 151.017 46.9608L144.801 42.7183C144.441 42.4688 144.441 41.8199 144.75 41.2709Z" fill="#FFC220"/>
<path d="M136.582 41.271C136.89 41.82 136.89 42.4688 136.53 42.7683L130.366 46.9608C129.698 47.3102 128.774 46.9109 128.209 45.9626C127.644 45.0642 127.746 44.0161 128.414 43.6667L135.298 40.5722C135.709 40.3726 136.274 40.672 136.582 41.271Z" fill="#FFC220"/>
<path d="M154.973 46.312H155.076C155.179 46.312 155.23 46.3619 155.23 46.4617C155.23 46.5615 155.281 46.6114 155.281 46.6613H155.487C155.487 46.6613 155.435 46.5615 155.435 46.4617C155.435 46.3619 155.333 46.312 155.281 46.2621C155.384 46.2621 155.435 46.1622 155.435 46.0624C155.435 45.9626 155.384 45.9127 155.384 45.8628C155.333 45.8129 155.23 45.8129 155.076 45.8129C154.922 45.8129 154.819 45.8129 154.768 45.8628V46.6613H154.973V46.312ZM155.024 45.9626H155.127C155.23 45.9626 155.333 46.0125 155.333 46.1123C155.333 46.2121 155.23 46.2121 155.127 46.2121H155.024V45.9626ZM155.127 45.4136C154.665 45.4136 154.254 45.7629 154.254 46.2121C154.254 46.6613 154.613 47.0606 155.127 47.0606C155.641 47.0606 156 46.7113 156 46.2121C156 45.7629 155.641 45.4136 155.127 45.4136ZM155.127 45.5633C155.487 45.5633 155.795 45.8628 155.795 46.2121C155.795 46.5615 155.538 46.861 155.127 46.861C154.768 46.861 154.459 46.5615 154.459 46.2121C154.459 45.8628 154.768 45.5633 155.127 45.5633Z" fill="#FFC220"/>
</svg>
