<svg width="192" height="77" viewBox="0 0 192 77" fill="none" xmlns="http://www.w3.org/2000/svg">
<rect width="192" height="77" rx="10" fill="#3C1053"/>
<path d="M119.116 36.3608V38.8039H116.157V45.1709C116.157 46.3067 116.691 46.5272 117.678 46.5272C118.255 46.5272 118.689 46.4155 118.895 46.3518L119.116 46.2813V48.7303L118.992 48.7607C118.162 48.9723 117.468 49.0429 116.444 49.0429C115.735 49.0429 113.424 48.8077 113.424 45.757V38.8039H111.687V38.6392C111.686 38.5207 111.686 37.6818 111.687 36.8988V36.3608H113.424V33.2267L116.157 32.2644V36.3608H119.116ZM137.468 32.3663L134.197 48.7803H131.419L128.528 37.3506L125.59 48.7803H122.858L119.438 32.3663H122.29L124.506 43.504L127.261 32.3663H129.92C130.184 33.407 132.68 43.3658 132.712 43.4902C132.732 43.3579 134.676 32.7308 134.744 32.3663H137.468ZM140.3 41.2852C140.37 40.1141 141.192 38.5863 142.931 38.5863C144.817 38.5863 145.392 40.2631 145.454 41.2852H140.3ZM143.053 36.1383C140.97 36.1383 137.452 37.5044 137.452 42.6298C137.452 48.7332 142.278 49.0429 143.245 49.0429C145.294 49.0429 146.209 48.6127 147.108 48.1903L147.206 48.1442V45.5482L146.946 45.705C146.294 46.1156 145.029 46.5762 143.611 46.5762C140.743 46.5762 140.338 44.5124 140.301 43.6431H148.186L148.202 43.503C148.451 41.7899 148.204 39.3919 146.807 37.7592C145.884 36.6842 144.619 36.1373 143.054 36.1373M158.304 45.3228C158.304 47.1848 156.694 49.0674 153.63 49.0674C152.285 49.0674 150.801 48.7313 149.734 48.2138L149.638 48.1658V45.5002L149.891 45.6384C150.779 46.1186 152.2 46.6292 153.557 46.6292C154.795 46.6292 155.506 46.1833 155.506 45.4032C155.506 44.6702 155.07 44.4438 153.992 43.9646L153.568 43.7823C153.047 43.5559 152.591 43.354 151.84 43.0081C151.12 42.6817 149.44 41.9193 149.44 39.6526C149.44 38.4335 150.37 36.1393 153.861 36.1393C155.301 36.1393 156.726 36.5303 157.288 36.8037L157.388 36.8527V39.4713L157.134 39.3517C156.02 38.798 155.042 38.5412 153.958 38.5412C153.559 38.5412 152.239 38.6216 152.239 39.5497C152.239 40.2543 153.071 40.6228 153.742 40.9266L153.872 40.9814C154.356 41.1961 154.736 41.3754 155.063 41.5048L155.414 41.6557C157.516 42.5808 158.302 43.5686 158.302 45.3209M96.5781 32.3624H99.2457V48.7763H96.6521L89.5328 37.3447V48.7763H86.8691V32.3624H89.5289L96.5771 43.8813V32.3624H96.5781ZM163.04 38.8009V45.168C163.04 46.3077 163.573 46.5243 164.565 46.5243C165.128 46.5243 165.56 46.4126 165.777 46.3528L166 46.2783V48.7273L165.86 48.7577C165.043 48.9694 164.349 49.04 163.324 49.04C162.615 49.04 160.316 48.8048 160.316 45.754V38.8009H158.57V38.6363C158.563 38.5177 158.563 37.6789 158.57 36.8958V36.3578H160.316V33.2238L163.04 32.2614V36.3578H166V38.8009H163.04ZM108.184 45.1523C107.871 45.5404 106.889 46.5674 105.361 46.5674C104.186 46.5674 103.435 45.8883 103.435 44.8368C103.435 43.7852 104.292 43.1394 105.784 43.1394H108.184V45.1513V45.1523ZM106.08 36.0971C104.693 36.0971 103.346 36.3392 102.397 36.7547L102.289 36.7949V39.3233L102.537 39.1978C103.177 38.8852 104.712 38.601 105.674 38.601C108.071 38.601 108.177 39.5193 108.184 40.7129H105.622C102.229 40.7129 100.684 42.8532 100.684 44.8377C100.684 47.6043 102.871 49.0409 105.041 49.0409C106.52 49.0409 107.451 48.4833 108.202 47.814V48.7773H110.904V40.3846C110.904 36.5146 107.529 36.0971 106.08 36.0971Z" fill="white"/>
<path d="M74.6958 39.4999C74.6958 62.2211 72.9282 63.9998 50.3479 63.9998C27.7677 63.9998 26 62.2211 26 39.4999C26 16.7787 27.7677 15 50.3479 15C72.9282 15 74.6958 16.7787 74.6958 39.4999Z" fill="#3C1053"/>
<path d="M57.625 44.8862H47.9346L52.7769 53.3348H62.4683H62.4703L57.625 44.8862Z" fill="#E90000"/>
<path d="M62.4649 36.4459L67.3101 44.8895L62.4678 53.3342L57.6226 44.8856L62.4649 36.4459Z" fill="#C20000"/>
<path d="M55.1959 23.7755L55.1968 23.7746H45.5064L40.6641 32.2153H50.3536L55.1959 23.7755Z" fill="#E90000"/>
<path d="M50.3555 32.2153L55.2007 40.6619L60.043 32.2192L55.1978 23.7746L50.3555 32.2153Z" fill="#C20000"/>
<path d="M43.084 44.8845L47.9263 36.4447H38.2359L33.3935 44.8845L33.3906 44.8884L43.084 44.8845Z" fill="#E90000"/>
<path d="M47.9283 53.3348H47.9254H38.2359L33.3906 44.8892L33.3935 44.8853H43.084L47.9283 53.3348Z" fill="#C20000"/>
<path d="M57.6124 36.4457L55.1941 40.6617H50.3489L47.9297 44.8864H57.6202L62.4625 36.4457H57.6124Z" fill="url(#paint0_linear_912_1793)"/>
<path d="M43.0911 36.4451H47.9197L50.3477 40.6611H55.1929L50.3487 32.2145H40.6592L43.0911 36.4451Z" fill="url(#paint1_linear_912_1793)"/>
<path d="M50.346 49.1004L47.9307 44.8864L50.3499 40.6617L47.9219 36.4457L43.0806 44.8854L47.9248 53.335L50.346 49.1004Z" fill="url(#paint2_linear_912_1793)"/>
<defs>
<linearGradient id="paint0_linear_912_1793" x1="410.811" y1="388.073" x2="1018.58" y2="736.827" gradientUnits="userSpaceOnUse">
<stop stop-color="#C20000" stop-opacity="0.1"/>
<stop offset="0.24" stop-color="#C20000" stop-opacity="0.2"/>
<stop offset="0.72" stop-color="#C20000" stop-opacity="0.44"/>
<stop offset="1" stop-color="#C20000" stop-opacity="0.6"/>
</linearGradient>
<linearGradient id="paint1_linear_912_1793" x1="1074.03" y1="331.976" x2="763.134" y2="700.178" gradientUnits="userSpaceOnUse">
<stop stop-color="#C20000" stop-opacity="0.1"/>
<stop offset="0.2" stop-color="#C20000" stop-opacity="0.2"/>
<stop offset="0.61" stop-color="#C20000" stop-opacity="0.44"/>
<stop offset="1" stop-color="#C20000" stop-opacity="0.7"/>
</linearGradient>
<linearGradient id="paint2_linear_912_1793" x1="351.747" y1="531.918" x2="786.518" y2="894.46" gradientUnits="userSpaceOnUse">
<stop stop-color="#C20000" stop-opacity="0.1"/>
<stop offset="0.2" stop-color="#C20000" stop-opacity="0.2"/>
<stop offset="0.61" stop-color="#C20000" stop-opacity="0.44"/>
<stop offset="1" stop-color="#C20000" stop-opacity="0.7"/>
</linearGradient>
</defs>
</svg>
