<svg width="192" height="77" viewBox="0 0 192 77" fill="none" xmlns="http://www.w3.org/2000/svg">
<rect width="192" height="77" rx="10" fill="#5514B4"/>
<g clip-path="url(#clip0_908_171)">
<path d="M97 12.998C83.1912 12.998 72 24.1892 72 37.998C72 51.8068 83.1912 62.998 97 62.998C110.809 62.998 122 51.8018 122 37.998C122 24.1942 110.804 12.998 97 12.998ZM96.99 16.0811C109.112 16.0811 118.937 25.9059 118.937 38.028C118.937 50.1501 109.112 59.975 96.99 59.975C84.8679 59.975 75.043 50.1451 75.043 38.028C75.043 25.9109 84.8679 16.0811 96.99 16.0811Z" fill="white"/>
<path d="M84.5376 29.4545V46.4765H91.4645C94.6127 46.4765 97.0301 44.5095 97.0301 41.3964C97.0301 38.6537 94.8879 37.6026 94.8879 37.6026C94.8879 37.6026 96.5346 36.5516 96.5346 34.2192C96.5346 31.5065 94.3925 29.4545 91.2343 29.4545H84.5376ZM88.3714 32.7778H90.4185C91.8749 32.7778 92.5056 33.5235 92.5056 34.4495C92.5056 35.4505 91.7848 36.0861 90.5136 36.0861H88.3714V32.7778ZM88.3714 39.4945H90.4185C91.8749 39.4945 92.5056 40.2403 92.5056 41.1662C92.5056 42.1672 91.7848 42.8028 90.5136 42.8028H88.3714V39.4945Z" fill="white"/>
<path d="M102.17 46.4214V33.3584H98.3413V29.4244H110.253V33.3584H106.259V46.4214H102.17Z" fill="white"/>
</g>
<defs>
<clipPath id="clip0_908_171">
<rect width="50" height="50" fill="white" transform="translate(72 13)"/>
</clipPath>
</defs>
</svg>
