<svg width="192" height="77" viewBox="0 0 192 77" fill="none" xmlns="http://www.w3.org/2000/svg">
<rect width="192" height="77" rx="10" fill="#FFBFC5"/>
<g clip-path="url(#clip0_912_2601)">
<path d="M109.253 34.912C108.771 34.5975 108.289 34.283 108.129 33.9686C108.289 33.8113 108.45 33.4969 108.61 33.1824C109.735 31.6101 111.823 28.6226 111.823 24.3774C111.823 22.0189 110.859 19.3459 108.771 17.3019C106.522 15.4151 103.149 14 98.008 14C93.1888 14 87.7269 15.5723 83.0683 18.2453C80.9799 19.5031 79.2129 20.761 78.0884 22.0189C76.9639 23.2767 76.1606 24.5346 76.1606 25.478C76.1606 25.9497 76.3213 26.4214 76.8032 26.7359C77.4458 27.3648 78.5703 27.6792 80.1767 27.8365C81.7831 28.1509 83.7108 28.1509 85.6386 28.1509H85.9598C89.012 28.1509 91.261 28.3082 92.7068 28.4654C93.3494 28.6226 93.992 28.6226 94.3133 28.7799C94.6345 28.9371 94.7952 29.0943 94.7952 29.2516C94.7952 29.2516 94.7952 29.4088 94.4739 29.7233C93.8313 30.3522 92.0643 31.2956 90.4578 32.3962C89.6546 33.0252 88.8514 33.4969 88.3695 34.1258C87.7269 34.7547 87.4056 35.3836 87.4056 36.0126C87.4056 36.7987 87.8876 37.4277 88.5301 37.8994C90.4578 39.3145 94.4739 39.7862 96.5622 40.1006C97.8474 40.2579 98.49 40.7296 98.8112 41.2013C99.1325 41.673 99.2932 42.3019 99.2932 42.7736C99.2932 44.5031 98.6506 46.0755 97.3655 47.1761C96.241 48.1195 94.9558 48.7484 93.1888 48.7484H93.0281C93.0281 48.434 93.0281 48.1195 93.0281 47.6478C93.0281 45.6038 92.2249 43.8742 90.7791 42.6164C89.3333 41.3585 87.4056 40.7296 85.1566 40.7296C82.2651 40.7296 80.0161 41.8302 78.4096 43.5597C76.8032 45.2893 76 47.4906 76 49.8491C76 53.3082 77.6064 56.9245 80.8193 59.5975C84.0321 62.2704 88.8514 64 95.1165 64C100.096 64 105.076 62.4277 108.932 59.5975C112.145 57.239 115.839 52.9937 115.839 46.0755C115.839 39.7862 111.502 36.6415 109.253 34.912ZM89.3333 35.3836C89.9759 34.7547 91.4217 33.8113 92.5462 33.0252C93.6707 32.3962 94.6345 31.7673 95.2771 31.1384C95.9197 30.5094 96.4016 29.8805 96.4016 29.2516C96.4016 28.7799 96.241 28.1509 95.759 27.8365C95.1165 27.2075 93.8313 26.8931 92.2249 26.5786C90.6185 26.4214 88.6908 26.4214 86.6024 26.4214H86.1205C84.5141 26.4214 83.0683 26.4214 82.1044 26.4214C83.5502 25.7925 85.3173 25.0063 87.0843 24.0629C90.1365 22.4906 93.3494 20.761 96.5622 19.9748C95.759 20.761 95.2771 21.5472 95.2771 22.3333C95.2771 22.4906 95.2771 22.805 95.4378 22.9623C95.5984 23.1195 95.759 23.2767 96.0803 23.2767C96.5622 23.2767 97.2048 23.1195 98.008 22.805C98.9719 22.4906 100.096 22.1761 101.382 22.1761C102.506 22.1761 103.631 22.4906 104.916 23.2767C104.112 23.2767 103.47 23.434 103.149 23.7484C102.667 24.2201 102.506 24.5346 102.506 24.8491C102.506 25.3208 102.827 25.6352 103.309 26.1069C103.952 26.8931 104.755 27.6792 104.755 29.2516C104.755 30.3522 104.273 31.4528 103.631 32.3962V32.239C103.631 31.4528 103.47 30.6667 102.988 30.195C102.827 29.7233 102.506 29.566 102.024 29.566C101.382 29.566 100.739 30.0377 99.9357 30.6667C99.2932 31.2956 98.6506 31.9245 97.6867 32.3962C93.6707 34.912 91.5823 35.8553 90.1365 36.0126C89.494 36.0126 88.6908 36.0126 89.3333 35.3836ZM93.0281 50.3208C95.2771 50.3208 97.0442 49.6918 98.49 48.434C100.096 47.0189 100.9 44.9748 100.9 42.7736C100.9 41.673 100.578 40.8868 99.9357 40.1006C103.309 40.8868 106.683 42.6164 108.61 45.1321C107.807 44.8176 107.165 44.8176 106.522 44.8176C105.88 44.8176 105.398 45.4465 105.398 46.2327C105.398 46.5472 105.558 47.0189 105.719 47.6478C106.04 48.434 106.361 49.5346 106.361 50.7925C106.361 52.0503 106.04 53.3082 105.076 54.8805C105.076 53.6226 104.755 52.6792 104.273 52.2076C103.952 51.7359 103.631 51.7359 103.309 51.7359C102.988 51.7359 102.667 51.8931 102.345 52.2076C102.024 52.522 101.863 52.8365 101.542 53.3082C100.578 54.8805 99.1325 57.5535 94.6345 58.8113C95.1165 58.1824 95.2771 57.3962 95.2771 56.9245C95.2771 56.7673 95.2771 56.4528 95.1165 56.2956C94.9558 55.9811 94.6345 55.8239 94.3133 55.8239C93.8313 55.8239 93.1888 55.9811 92.5462 56.1384C91.9036 56.1384 90.6185 56.4528 89.1727 56.4528C87.7269 56.4528 86.1205 56.1384 84.5141 54.8805C84.996 54.7233 85.6386 54.566 85.9598 54.2516C86.2811 53.9371 86.4418 53.6226 86.4418 53.3082C86.4418 52.8365 85.9598 52.3648 85.4779 52.0503C84.8353 51.4214 84.0321 50.6352 84.0321 49.3774C84.0321 49.0629 84.0321 48.5912 84.1928 48.1195C84.3534 48.5912 84.5141 48.9057 84.8353 49.2201C85.3173 49.6918 85.7992 50.0063 86.2811 50.0063C86.7631 50.0063 87.0843 49.6918 87.245 49.5346C87.4056 49.2201 87.4056 48.9057 87.4056 48.5912C87.4056 48.2767 87.5663 47.9623 87.7269 47.805C87.8876 47.6478 88.2088 47.4906 88.6908 47.4906C89.494 47.4906 89.9759 47.805 90.4578 48.434C90.7791 49.0629 91.1004 49.8491 91.1004 50.6352C91.1004 51.1069 90.9398 51.5786 90.9398 51.8931L90.7791 52.3648L91.1004 52.0503C91.743 51.5786 92.3855 50.7925 92.5462 50.3208C92.7068 50.3208 92.8675 50.3208 93.0281 50.3208ZM78.249 26.1069C78.0884 25.9497 77.9277 25.7925 77.9277 25.6352C77.9277 25.0063 78.5703 24.0629 79.5341 22.9623C82.747 19.8176 90.2972 15.7296 98.008 15.7296C101.863 15.7296 105.076 16.673 107.165 18.4025C108.932 19.9748 110.056 22.1761 110.056 24.5346C110.056 28.3082 108.289 30.8239 107.165 32.3962C106.683 33.1824 106.201 33.6541 106.201 34.1258C106.201 34.5975 106.361 34.912 106.683 35.2264C107.004 35.5409 107.486 35.8553 107.968 36.327C110.217 37.8994 113.912 40.5723 113.912 46.0755C113.912 52.3648 110.538 56.1384 107.647 58.1824C104.112 60.6981 99.4538 62.2704 94.7952 62.2704C83.2289 62.2704 77.2851 55.9811 77.2851 49.8491C77.2851 47.9623 77.9277 46.2327 79.2129 44.8176C80.498 43.4025 82.2651 42.4591 84.6747 42.4591C85.9598 42.4591 87.5663 42.7736 88.8514 43.5597C90.1365 44.3459 91.1004 45.761 91.1004 48.1195V48.2767C90.9398 47.9623 90.7791 47.805 90.6185 47.4906C90.1365 46.8616 89.3333 46.3899 88.3695 46.3899C87.0843 46.3899 86.1205 47.3333 86.1205 48.5912C86.1205 48.7484 86.1205 48.9057 86.1205 49.0629C85.7992 49.0629 85.4779 48.9057 85.1566 48.434C84.8353 47.9623 84.6747 47.4906 84.6747 46.7044C84.6747 46.5472 84.6747 46.3899 84.6747 46.2327V45.9182L84.3534 46.2327C83.2289 47.4906 82.747 48.5912 82.747 49.6918C82.747 51.2642 83.8715 52.522 84.5141 52.9937C84.6747 53.1509 84.8353 53.3082 84.8353 53.3082L84.996 53.4654C84.996 53.4654 84.8353 53.6226 84.5141 53.7799C84.1928 53.9371 83.7108 54.0943 82.9076 54.0943C82.5863 54.0943 82.4257 54.0943 82.1044 54.0943H81.7831L81.9438 54.2516C84.1928 56.7673 86.6024 57.5535 88.6908 57.5535C90.2972 57.5535 91.5823 57.239 92.7068 56.9245C93.1888 56.7673 93.6707 56.6101 93.8313 56.6101C93.992 56.6101 93.992 56.6101 93.992 56.6101V56.7673C93.992 57.0818 93.8313 57.5535 93.51 58.1824C93.1888 58.8113 92.7068 59.283 92.3855 59.7547L92.0643 60.0692H92.3855C98.8112 59.283 101.06 55.6667 102.024 53.7799C102.185 53.4654 102.345 53.1509 102.506 52.9937C103.149 52.6792 103.309 52.522 103.309 52.522C103.309 52.522 103.47 52.522 103.631 52.6792C103.952 53.1509 104.273 54.2516 104.273 55.5094C104.273 55.9811 104.273 56.6101 104.112 57.0818L103.952 57.3962L104.273 57.0818C106.683 54.8805 107.325 52.522 107.325 50.6352C107.325 49.2201 107.004 47.9623 106.683 47.0189C106.522 46.5472 106.361 46.2327 106.361 45.9182C106.361 45.761 106.361 45.6038 106.361 45.6038C106.361 45.6038 106.522 45.6038 106.522 45.4465C107.486 45.4465 108.771 45.761 110.217 46.5472L110.538 46.7044L110.378 46.3899C108.45 41.8302 103.952 39.9434 99.6145 38.8428C97.6867 38.5283 95.5984 38.2138 93.6707 37.8994C92.3855 37.7421 91.261 37.4277 90.4578 37.2704C90.2972 37.2704 90.1365 37.1132 89.9759 37.1132C92.3855 36.7987 95.4377 35.0692 98.008 33.4969C98.9719 32.8679 99.7751 32.239 100.418 31.7673C100.739 31.2956 101.06 31.1384 101.382 30.9811C101.703 30.8239 101.863 30.6667 101.863 30.6667C101.863 30.6667 102.024 30.6667 102.185 30.8239C102.506 31.1384 102.506 31.7673 102.506 32.5535C102.506 33.1824 102.345 33.8113 102.345 34.4403V34.7547L102.667 34.4403C104.755 33.1824 105.719 31.1384 105.719 29.2516C105.719 27.3648 104.594 26.2642 103.952 25.478C103.952 25.3208 103.791 25.1635 103.631 25.0063C103.631 24.8491 103.47 24.8491 103.47 24.8491C103.47 24.8491 103.47 24.6918 103.631 24.6918C104.112 24.3774 104.755 24.2201 105.719 24.2201C106.201 24.2201 106.683 24.2201 107.165 24.3774H107.486L107.325 24.0629C105.558 21.8616 103.47 21.0755 101.542 21.0755C100.096 21.0755 98.8112 21.5472 97.8474 21.8616C97.3655 22.0189 96.7229 22.1761 96.4016 22.1761C96.4016 21.8616 96.7229 21.2327 97.0442 20.761C97.5261 20.1321 98.1687 19.5031 99.1325 19.0314L99.4538 18.717H99.1325C98.9719 18.717 98.8112 18.717 98.6506 18.717C94.9558 18.717 90.1365 21.2327 86.6024 23.1195C84.3534 24.2201 79.6948 26.8931 78.249 26.1069Z" fill="black"/>
</g>
<defs>
<clipPath id="clip0_912_2601">
<rect width="40" height="50" fill="white" transform="translate(76 14)"/>
</clipPath>
</defs>
</svg>
