<svg width="192" height="77" viewBox="0 0 192 77" fill="none" xmlns="http://www.w3.org/2000/svg">
<rect width="192" height="77" rx="10" fill="#0F62FE"/>
<g clip-path="url(#clip0_908_243)">
<path d="M56 52.7741H71.552V54.992H56V52.7741Z" fill="white"/>
<path d="M56 48.5139H71.552V50.7477H56V48.5139Z" fill="white"/>
<path d="M60.4399 44.2615H67.1119V46.4954H60.4399V44.2615Z" fill="white"/>
<path d="M60.4399 40.0172H67.1119V42.2431H60.4399V40.0172Z" fill="white"/>
<path d="M60.4399 35.7649H67.1119V37.9908H60.4399V35.7649Z" fill="white"/>
<path d="M60.4399 31.5046H67.1119V33.7305H60.4399V31.5046Z" fill="white"/>
<path d="M71.552 27.2523H56V29.4782H71.552V27.2523Z" fill="white"/>
<path d="M71.552 23H56V25.2259H71.552V23Z" fill="white"/>
<path d="M73.7759 50.7477H97.6959C98.1039 50.0616 98.3999 49.3116 98.5839 48.5218H73.7759V50.7477Z" fill="white"/>
<path d="M95.8318 40.0172H78.2158V42.2431H97.6958C97.1918 41.3894 96.5598 40.6395 95.8318 40.0172Z" fill="white"/>
<path d="M78.2158 35.7649V37.9908H95.8318C96.5758 37.3685 97.1998 36.6185 97.6958 35.7649H78.2158Z" fill="white"/>
<path d="M97.6959 27.2523H73.7759V29.4782H98.5839C98.3759 28.6884 98.0799 27.9384 97.6959 27.2523Z" fill="white"/>
<path d="M90.3439 23H73.7759V25.2259H96.0559C94.5679 23.8537 92.5439 23 90.3439 23Z" fill="white"/>
<path d="M84.8798 31.5046H78.2158V33.7305H84.8798V31.5046Z" fill="white"/>
<path d="M91.5518 33.7305H98.5278C98.7278 33.0205 98.8318 32.2705 98.8318 31.5046H91.5598L91.5518 33.7305Z" fill="white"/>
<path d="M78.2158 44.2615H84.8798V46.4954H78.2158V44.2615Z" fill="white"/>
<path d="M91.5518 44.2615V46.4874H98.8238C98.8238 45.7215 98.7198 44.9716 98.5198 44.2615H91.5518Z" fill="white"/>
<path d="M73.7759 54.984L90.3439 55.008C92.5599 55.008 94.5679 54.1543 96.0639 52.7821H73.7759V54.984Z" fill="white"/>
<path d="M100.448 52.7741H111.552V54.992H100.448V52.7741Z" fill="white"/>
<path d="M100.448 48.5139H111.552V50.7477H100.448V48.5139Z" fill="white"/>
<path d="M104.88 44.2615H111.552V46.4954H104.88V44.2615Z" fill="white"/>
<path d="M104.88 40.0172H111.552V42.2431H104.88V40.0172Z" fill="white"/>
<path d="M114.648 27.2523H100.448V29.4782H115.416L114.648 27.2523Z" fill="white"/>
<path d="M113.168 23H100.448V25.2259H113.936L113.168 23Z" fill="white"/>
<path d="M124.88 52.7741H136V54.992H124.88V52.7741Z" fill="white"/>
<path d="M124.88 48.5139H136V50.7477H124.88V48.5139Z" fill="white"/>
<path d="M124.88 44.2615H131.552V46.4954H124.88V44.2615Z" fill="white"/>
<path d="M124.88 40.0172H131.552V42.2431H124.88V40.0172Z" fill="white"/>
<path d="M124.88 37.9908H131.552V35.7649H124.88H118.848L118.216 37.56L117.592 35.7649H111.552H104.88V37.9908H111.552V35.9404L112.256 37.9908H124.176L124.88 35.9404V37.9908Z" fill="white"/>
<path d="M131.552 31.5046H120.32L119.552 33.7305H131.552V31.5046Z" fill="white"/>
<path d="M123.272 23L122.504 25.2259H136V23H123.272Z" fill="white"/>
<path d="M118.216 54.984L118.984 52.7741H117.448L118.216 54.984Z" fill="white"/>
<path d="M116.744 50.7477H119.696L120.488 48.5139H115.96L116.744 50.7477Z" fill="white"/>
<path d="M115.248 46.4954H121.192L121.976 44.2615H114.464L115.248 46.4954Z" fill="white"/>
<path d="M113.76 42.2431H122.688L123.448 40.0172H112.992L113.76 42.2431Z" fill="white"/>
<path d="M104.88 33.7305H116.888L116.12 31.5046H104.88V33.7305Z" fill="white"/>
<path d="M121.032 29.4782H136V27.2523H121.792L121.032 29.4782Z" fill="white"/>
</g>
<defs>
<clipPath id="clip0_908_243">
<rect width="80" height="32" fill="white" transform="translate(56 23)"/>
</clipPath>
</defs>
</svg>
