<svg width="81" height="81" viewBox="0 0 81 81" fill="none" xmlns="http://www.w3.org/2000/svg">
<g clip-path="url(#clip0_2186_6774)">
<path d="M15.1056 2.0824H66.7723C73.4536 2.0824 78.939 7.63466 78.939 14.6123V65.5525C78.939 72.5301 73.4536 78.0824 66.7723 78.0824H15.1056C8.4243 78.0824 2.93896 72.5301 2.93896 65.5525V14.6123C2.93896 7.63466 8.4243 2.0824 15.1056 2.0824Z" stroke="#FF9A00" stroke-width="4"/>
<path d="M39.6057 47.9456H27.2057L24.6723 55.9798C24.6057 56.2875 24.339 56.4926 24.039 56.4584H17.7723C17.4057 56.4584 17.3057 56.2533 17.4057 55.843L28.139 24.1507C28.239 23.8088 28.339 23.4328 28.4723 23.0225C28.6057 22.3046 28.6723 21.5524 28.6723 20.8003C28.639 20.6293 28.7723 20.4584 28.939 20.4242H37.5723C37.839 20.4242 37.9723 20.5268 38.0057 20.6977L50.1723 55.9114C50.2723 56.2875 50.1723 56.4584 49.839 56.4584H42.8723C42.639 56.4926 42.4057 56.3217 42.339 56.0823L39.6057 47.9456ZM29.139 41.0054H37.6057C37.4057 40.2875 37.139 39.4328 36.839 38.5439C36.539 37.6208 36.239 36.6293 35.939 35.6037C35.6057 34.5439 35.3057 33.5182 34.9723 32.4584C34.639 31.3986 34.339 30.4071 34.0723 29.4157C33.8057 28.4584 33.5723 27.5695 33.339 26.749H33.2723C32.9723 28.2191 32.6057 29.6892 32.139 31.1593C31.639 32.8003 31.139 34.5097 30.6057 36.2191C30.139 37.9627 29.639 39.5695 29.139 41.0054ZM57.6057 26.4071C56.5057 26.4413 55.439 25.9969 54.639 25.2105C53.8723 24.3558 53.4723 23.2276 53.5057 22.0652C53.4723 20.9029 53.9057 19.8088 54.7057 19.0225C55.5057 18.2362 56.5723 17.8259 57.6723 17.8259C58.9723 17.8259 59.9723 18.2362 60.7057 19.0225C61.439 19.843 61.839 20.937 61.8057 22.0652C61.839 23.2276 61.439 24.3558 60.639 25.2105C59.8723 26.0311 58.739 26.4755 57.6057 26.4071ZM53.8723 56.0823V29.7576C53.8723 29.4157 54.0057 29.2789 54.3057 29.2789H60.9057C61.2057 29.2789 61.339 29.4499 61.339 29.7576V56.0823C61.339 56.4584 61.2057 56.6293 60.9057 56.6293H54.3723C54.039 56.6293 53.8723 56.4242 53.8723 56.0823Z" fill="#FF9A00"/>
</g>
<defs>
<clipPath id="clip0_2186_6774">
<rect width="80" height="80" fill="white" transform="translate(0.938965 0.0823975)"/>
</clipPath>
</defs>
</svg>
