<svg width="81" height="81" viewBox="0 0 81 81" fill="none" xmlns="http://www.w3.org/2000/svg">
<g clip-path="url(#clip0_2186_6892)">
<path d="M14.7008 2.0824H66.3675C73.0489 2.0824 78.5342 7.63466 78.5342 14.6123V65.5525C78.5342 72.5301 73.0489 78.0824 66.3675 78.0824H14.7008C8.01951 78.0824 2.53418 72.5301 2.53418 65.5525V14.6123C2.53418 7.63466 8.01951 2.0824 14.7008 2.0824Z" stroke="#33A9FF" stroke-width="4"/>
<path d="M18.5342 56.185V21.0055C18.5342 20.7662 18.6342 20.6294 18.8675 20.6294C19.4342 20.6294 19.9675 20.6294 20.7342 20.5953C21.5342 20.5611 22.3675 20.5611 23.2675 20.5269C24.1675 20.4927 25.1342 20.4927 26.1675 20.4585C27.2008 20.4243 28.2008 20.4243 29.2008 20.4243C31.9342 20.4243 34.2008 20.7662 36.0675 21.4841C37.7342 22.0653 39.2675 23.0226 40.5342 24.2876C41.6008 25.3816 42.4342 26.7149 42.9675 28.185C43.4675 29.6209 43.7342 31.091 43.7342 32.6294C43.7342 35.5696 43.0675 37.997 41.7342 39.9115C40.4008 41.826 38.5342 43.2619 36.3675 44.0824C34.1008 44.9371 31.6008 45.2448 28.8675 45.2448C28.0675 45.2448 27.5342 45.2448 27.2008 45.2106C26.8675 45.1765 26.4008 45.1765 25.7675 45.1765V56.1508C25.8008 56.3901 25.6342 56.5953 25.4008 56.6294C25.3675 56.6294 25.3342 56.6294 25.2675 56.6294H18.9342C18.6675 56.6294 18.5342 56.4927 18.5342 56.185ZM25.8008 27.2277V38.7149C26.2675 38.7491 26.7008 38.7833 27.1008 38.7833H28.8675C30.1675 38.7833 31.4675 38.5782 32.7008 38.1679C33.7675 37.8602 34.7008 37.2106 35.4342 36.3559C36.1342 35.5012 36.4675 34.3388 36.4675 32.8346C36.5008 31.7747 36.2342 30.7149 35.7008 29.7918C35.1342 28.9029 34.3342 28.2192 33.3675 27.8431C32.1342 27.3303 30.8008 27.1252 29.4342 27.1594C28.5675 27.1594 27.8008 27.1594 27.1675 27.1935C26.5008 27.1594 26.0342 27.1935 25.8008 27.2277Z" fill="#33A9FF"/>
<path d="M64.534 36.6294C63.534 36.0824 62.4673 35.7064 61.334 35.4671C60.1006 35.1936 58.8673 35.0226 57.6006 35.0226C56.934 34.9884 56.234 35.091 55.6006 35.2619C55.1673 35.3645 54.8006 35.6038 54.5673 35.9457C54.4006 36.2192 54.3006 36.5611 54.3006 36.8688C54.3006 37.1765 54.434 37.4841 54.634 37.7577C54.934 38.1337 55.334 38.4414 55.7673 38.6807C56.534 39.091 57.334 39.4671 58.134 39.8089C59.934 40.4243 61.6673 41.279 63.2673 42.3047C64.3673 43.0226 65.2673 43.9799 65.9006 45.1423C66.434 46.2363 66.7006 47.4329 66.6673 48.6636C66.7006 50.2705 66.234 51.8773 65.3673 53.2106C64.434 54.5782 63.134 55.638 61.634 56.2534C60.0006 56.9713 58.0006 57.3474 55.6006 57.3474C54.0673 57.3474 52.5673 57.2106 51.0673 56.903C49.9006 56.6978 48.734 56.3218 47.6673 55.8089C47.434 55.6722 47.2673 55.4329 47.3006 55.1594V49.2106C47.3006 49.1081 47.334 48.9713 47.434 48.903C47.534 48.8346 47.634 48.8688 47.734 48.9371C49.034 49.7235 50.4006 50.2705 51.8673 50.6124C53.134 50.9542 54.4673 51.1252 55.8006 51.1252C57.0673 51.1252 57.9673 50.9542 58.5673 50.6465C59.1006 50.4072 59.4673 49.826 59.4673 49.2106C59.4673 48.732 59.2006 48.2876 58.6673 47.8431C58.134 47.3987 57.034 46.8859 55.4006 46.2363C53.7006 45.6209 52.134 44.8004 50.6673 43.7747C49.634 43.0226 48.7673 42.0312 48.134 40.8688C47.6006 39.7747 47.334 38.5782 47.3673 37.3816C47.3673 35.9115 47.7673 34.5098 48.5006 33.2448C49.334 31.8773 50.5673 30.7833 52.0006 30.0995C53.5673 29.279 55.534 28.903 57.9006 28.903C59.2673 28.903 60.6673 29.0055 62.034 29.2106C63.034 29.3474 64.0006 29.6209 64.9006 29.997C65.034 30.0312 65.1673 30.1679 65.234 30.3047C65.2673 30.4414 65.3006 30.5782 65.3006 30.7149V36.2876C65.3006 36.4243 65.234 36.5611 65.134 36.6294C64.834 36.6978 64.6673 36.6978 64.534 36.6294Z" fill="#33A9FF"/>
</g>
<defs>
<clipPath id="clip0_2186_6892">
<rect width="80" height="80" fill="white" transform="translate(0.53418 0.0823975)"/>
</clipPath>
</defs>
</svg>
