<svg width="81" height="81" viewBox="0 0 81 81" fill="none" xmlns="http://www.w3.org/2000/svg">
<g clip-path="url(#clip0_2186_6777)">
<path d="M14.903 2.0824H66.5697C73.251 2.0824 78.7363 7.63466 78.7363 14.6123V65.5525C78.7363 72.5301 73.251 78.0824 66.5697 78.0824H14.903C8.22166 78.0824 2.73633 72.5301 2.73633 65.5525V14.6123C2.73633 7.63466 8.22166 2.0824 14.903 2.0824Z" stroke="#FF3366" stroke-width="4"/>
<path d="M29.803 21.0056V56.2192C29.803 56.5953 29.6363 56.7662 29.3363 56.7662H22.803C22.503 56.7662 22.3696 56.5953 22.3696 56.2192V21.0056C22.3696 20.6979 22.5363 20.5611 22.8363 20.5611H29.3363C29.5363 20.5269 29.7363 20.6637 29.7696 20.903C29.803 20.9372 29.803 20.9714 29.803 21.0056Z" fill="#FF3366"/>
<path d="M49.0697 57.1765C46.6031 57.2107 44.1364 56.6978 41.9031 55.638C39.8031 54.6466 38.0697 53.0055 36.8697 50.9884C35.6364 48.903 35.0364 46.3047 35.0364 43.1936C35.0031 40.6636 35.6364 38.1679 36.8697 35.9799C38.1364 33.7577 39.9697 31.9115 42.1697 30.6807C44.5031 29.3474 47.3031 28.6978 50.6031 28.6978C50.7697 28.6978 51.0031 28.6978 51.3031 28.732C51.6031 28.7662 51.9364 28.7662 52.3364 28.8004V17.997C52.3364 17.7577 52.4364 17.6209 52.6697 17.6209H59.4364C59.6031 17.5867 59.7364 17.7235 59.7697 17.8602V17.9286V50.4756C59.7697 51.091 59.8031 51.7748 59.8364 52.5269C59.9031 53.2448 59.9364 53.9286 59.9697 54.5098C59.9697 54.7491 59.8697 54.9542 59.6364 55.0568C57.9031 55.8089 56.0697 56.356 54.2031 56.6978C52.5364 57.0055 50.8031 57.1765 49.0697 57.1765ZM52.3364 50.3389V35.2961C52.0364 35.2278 51.7364 35.1594 51.4364 35.1252C51.0697 35.091 50.7031 35.0568 50.3364 35.0568C49.0364 35.0568 47.7364 35.3303 46.5697 35.9457C45.4364 36.5269 44.4697 37.3816 43.7364 38.4756C43.0031 39.5696 42.6364 41.0397 42.6364 42.8175C42.6031 44.0141 42.8031 45.2107 43.2031 46.3389C43.5364 47.2619 44.0364 48.0824 44.7031 48.7662C45.3364 49.3816 46.1031 49.8602 46.9697 50.1337C47.8697 50.4414 48.8031 50.5782 49.7364 50.5782C50.2364 50.5782 50.7031 50.544 51.1364 50.5098C51.5697 50.544 51.9697 50.4756 52.3364 50.3389Z" fill="#FF3366"/>
</g>
<defs>
<clipPath id="clip0_2186_6777">
<rect width="80" height="80" fill="white" transform="translate(0.736328 0.0823975)"/>
</clipPath>
</defs>
</svg>
