<svg width="54" height="81" viewBox="0 0 54 81" fill="none" xmlns="http://www.w3.org/2000/svg">
<g clip-path="url(#clip0_2186_6763)">
<path d="M13.3387 80.0824C20.6987 80.0824 26.672 74.1091 26.672 66.7491V53.4158H13.3387C5.9787 53.4158 0.00537109 59.3891 0.00537109 66.7491C0.00537109 74.1091 5.9787 80.0824 13.3387 80.0824Z" fill="#0ACF83"/>
<path d="M0.00537109 40.0824C0.00537109 32.7224 5.9787 26.749 13.3387 26.749H26.672V53.4157H13.3387C5.9787 53.4157 0.00537109 47.4424 0.00537109 40.0824Z" fill="#A259FF"/>
<path d="M0.00537109 13.4157C0.00537109 6.05573 5.9787 0.0823975 13.3387 0.0823975H26.672V26.7491H13.3387C5.9787 26.7491 0.00537109 20.7757 0.00537109 13.4157Z" fill="#F24E1E"/>
<path d="M26.6719 0.0823975H40.0052C47.3652 0.0823975 53.3385 6.05573 53.3385 13.4157C53.3385 20.7757 47.3652 26.7491 40.0052 26.7491H26.6719V0.0823975Z" fill="#FF7262"/>
<path d="M53.3385 40.0824C53.3385 47.4424 47.3652 53.4157 40.0052 53.4157C32.6452 53.4157 26.6719 47.4424 26.6719 40.0824C26.6719 32.7224 32.6452 26.749 40.0052 26.749C47.3652 26.749 53.3385 32.7224 53.3385 40.0824Z" fill="#1ABCFE"/>
</g>
<defs>
<clipPath id="clip0_2186_6763">
<rect width="53.344" height="80" fill="white" transform="translate(0 0.0823975)"/>
</clipPath>
</defs>
</svg>
